<svg width="152" height="125" viewBox="0 0 152 125" fill="none" xmlns="http://www.w3.org/2000/svg">
<path d="M17.6797 119.53H18.8297V123.83H19.5897V119.53H20.7297V118.82H17.6797V119.53Z" fill="url(#paint0_linear_13_953)"/>
<path d="M27.21 123.83H28.02L28.58 122.61H30.7199L31.2499 123.83H32.08L29.6899 118.51L27.21 123.83ZM28.9 121.9L29.6799 120.2L30.4199 121.9H28.9Z" fill="url(#paint1_linear_13_953)"/>
<path d="M41.5004 119.44C42.0904 119.44 42.5904 119.71 43.0004 120.26L43.5403 119.74C43.2303 119.38 42.9104 119.12 42.5804 118.96C42.2404 118.8 41.8803 118.72 41.4803 118.72C40.7503 118.72 40.1304 118.97 39.6204 119.48C39.1104 119.99 38.8604 120.6 38.8604 121.33C38.8604 122.06 39.1104 122.65 39.6104 123.16C40.1104 123.67 40.7103 123.92 41.4103 123.92C42.1103 123.92 42.7204 123.66 43.1804 123.14C43.3904 122.91 43.5304 122.66 43.6204 122.39C43.7104 122.1 43.7504 121.77 43.7504 121.39V121.22H41.6804V121.93H42.9304C42.9004 122.28 42.7304 122.59 42.4304 122.84C42.1304 123.09 41.8004 123.22 41.4304 123.22C40.9904 123.22 40.5904 123.05 40.2104 122.72C39.8104 122.36 39.6104 121.9 39.6104 121.34C39.6104 120.78 39.7904 120.35 40.1504 119.99C40.5104 119.62 40.9503 119.44 41.4803 119.44H41.5004Z" fill="url(#paint2_linear_13_953)"/>
<path d="M52.4004 118.82V123.83H54.6304V123.12H53.1603V118.82H52.4004Z" fill="url(#paint3_linear_13_953)"/>
<path d="M62.7502 118.82H61.9902V123.83H62.7502V118.82Z" fill="url(#paint4_linear_13_953)"/>
<path d="M74.9998 124.13V118.82H74.2398V122.3L70.5898 118.48V123.83H71.3498V120.32L74.9998 124.13Z" fill="url(#paint5_linear_13_953)"/>
<path d="M85.6098 119.53V118.82H82.8398V123.83H85.6098V123.12H83.5998V121.44H85.5498V120.73H83.5998V119.53H85.6098Z" fill="url(#paint6_linear_13_953)"/>
<path d="M102.74 123.83V118.82H101.99V120.78H99.8303V118.82H99.0703V123.83H99.8303V121.49H101.99V123.83H102.74Z" fill="url(#paint7_linear_13_953)"/>
<path d="M113.35 119.53V118.82H110.59V123.83H113.35V123.12H111.34V121.44H113.29V120.73H111.34V119.53H113.35Z" fill="url(#paint8_linear_13_953)"/>
<path d="M123.79 120.29C123.79 119.84 123.63 119.47 123.3 119.19C123.01 118.94 122.53 118.82 121.87 118.82H120.98V123.83H121.74V121.78H121.88L123.31 123.83H124.23L122.68 121.7C123.01 121.63 123.28 121.47 123.48 121.21C123.68 120.95 123.79 120.65 123.79 120.3V120.29ZM121.98 121.12H121.74V119.53H122.01C122.71 119.53 123.05 119.79 123.05 120.3C123.05 120.85 122.69 121.12 121.98 121.12Z" fill="url(#paint9_linear_13_953)"/>
<path d="M131.63 123.83H134.39V123.12H132.38V121.44H134.33V120.73H132.38V119.53H134.39V118.82H131.63V123.83Z" fill="url(#paint10_linear_13_953)"/>
<path d="M11.8602 109.83C11.6102 110.16 11.3202 110.45 10.9902 110.71C10.6602 110.96 10.2702 111.16 9.82019 111.31C9.37019 111.46 8.88021 111.54 8.34021 111.54C7.63021 111.54 6.98021 111.4 6.40021 111.12C5.82021 110.84 5.32021 110.45 4.90021 109.94C4.48021 109.43 4.15017 108.85 3.92017 108.18C3.69017 107.51 3.5802 106.78 3.5802 105.98C3.5802 105.07 3.69016 104.25 3.91016 103.51C4.13016 102.77 4.43018 102.17 4.81018 101.69C5.21018 101.2 5.69017 100.82 6.24017 100.57C6.79017 100.32 7.39021 100.19 8.03021 100.19C8.59021 100.19 9.09021 100.3 9.53021 100.53C9.97021 100.76 10.3402 101.07 10.6602 101.47C10.9402 101.82 11.1902 102.25 11.4002 102.76C11.6102 103.27 11.7702 103.74 11.8802 104.18H12.6902L12.6002 99.71H11.8102L11.4002 100.31C10.8902 100.03 10.3602 99.82 9.79016 99.67C9.23016 99.52 8.60016 99.4399 7.91016 99.4399C6.98016 99.4399 6.10021 99.6 5.28021 99.92C4.46021 100.24 3.75021 100.69 3.15021 101.27C2.54021 101.86 2.07015 102.56 1.72015 103.38C1.38015 104.2 1.2002 105.1 1.2002 106.11C1.2002 107.12 1.37016 108.01 1.73016 108.81C2.08016 109.61 2.5502 110.28 3.1402 110.84C3.7302 111.39 4.42019 111.82 5.19019 112.11C5.96019 112.4 6.76016 112.55 7.60016 112.55C8.90016 112.55 10.0102 112.28 10.9502 111.75C11.8902 111.22 12.6402 110.33 13.2102 109.09L12.4702 108.77C12.3102 109.16 12.1102 109.52 11.8602 109.85V109.83Z" fill="url(#paint11_linear_13_953)"/>
<path d="M35.4102 108.69C35.7702 107.88 35.9502 106.97 35.9502 105.98C35.9502 104.99 35.7702 104.09 35.4202 103.27C35.0702 102.45 34.5802 101.76 33.9602 101.18C33.3602 100.61 32.6402 100.18 31.8202 99.8599C30.9902 99.5499 30.1102 99.3899 29.1802 99.3899C28.2502 99.3899 27.4202 99.5399 26.6002 99.8499C25.7802 100.16 25.0502 100.6 24.4302 101.17C23.8002 101.75 23.3102 102.44 22.9502 103.24C22.5902 104.04 22.4102 104.95 22.4102 105.96C22.4102 106.89 22.5802 107.76 22.9202 108.58C23.2602 109.4 23.7302 110.09 24.3202 110.66C24.9202 111.24 25.6302 111.7 26.4602 112.02C27.2902 112.35 28.1902 112.51 29.1702 112.51C30.0902 112.51 30.9602 112.36 31.7702 112.05C32.5802 111.74 33.3002 111.31 33.9102 110.74C34.5402 110.17 35.0402 109.48 35.4002 108.67L35.4102 108.69ZM33.2902 108.25C33.1202 108.93 32.8502 109.53 32.4802 110.07C32.1202 110.6 31.6602 111.01 31.0902 111.31C30.5202 111.6 29.8802 111.75 29.1802 111.75C28.4302 111.75 27.7802 111.6 27.2402 111.31C26.7002 111.02 26.2502 110.61 25.8902 110.1C25.5202 109.57 25.2502 108.96 25.0802 108.28C24.9102 107.6 24.8202 106.83 24.8202 105.98C24.8202 105.21 24.9002 104.48 25.0602 103.79C25.2202 103.1 25.4702 102.49 25.8002 101.97C26.1502 101.43 26.6002 101 27.1602 100.67C27.7202 100.35 28.3902 100.18 29.1802 100.18C29.8902 100.18 30.5202 100.32 31.0602 100.6C31.6102 100.88 32.0702 101.27 32.4302 101.77C32.7902 102.28 33.0702 102.89 33.2602 103.61C33.4502 104.33 33.5402 105.12 33.5402 105.98C33.5402 106.84 33.4602 107.57 33.2902 108.25Z" fill="url(#paint12_linear_13_953)"/>
<path d="M47.5101 110.42C47.4201 110.76 47.2701 111.01 47.0301 111.18C46.8501 111.31 46.6001 111.41 46.2701 111.47C45.9401 111.53 45.6301 111.58 45.3301 111.6V112.23H51.0101V111.6C50.8701 111.6 50.5701 111.54 50.1201 111.42C49.6601 111.31 49.36 111.19 49.22 111.07C49.01 110.91 48.8501 110.63 48.7501 110.26C48.6501 109.88 48.6 109.33 48.6 108.61V101.13H48.73L53.3 112.03H53.8L58.6 101.36H58.7501V110.47C58.7501 110.69 58.7 110.87 58.61 111.01C58.51 111.15 58.36 111.28 58.16 111.39C58.03 111.45 57.7801 111.5 57.4301 111.54C57.0801 111.58 56.7901 111.6 56.5601 111.6V112.23H62.7801V111.6C62.6001 111.6 62.3601 111.57 62.0601 111.52C61.7601 111.47 61.5401 111.42 61.4301 111.36C61.2101 111.25 61.05 111.13 60.97 110.99C60.89 110.85 60.85 110.68 60.85 110.47V101.44C60.85 101.25 60.89 101.07 60.97 100.9C61.05 100.74 61.2001 100.62 61.4301 100.55C61.5601 100.51 61.7701 100.46 62.0601 100.42C62.3501 100.37 62.5801 100.35 62.7701 100.34V99.71H58.1801C58.1801 99.82 58.13 100.03 58.04 100.34C57.95 100.66 57.84 100.96 57.72 101.25L54.2801 109.12L50.2501 99.7199H45.4501V100.35C45.7401 100.36 46.0401 100.41 46.3301 100.48C46.6201 100.55 46.8801 100.67 47.0801 100.83C47.2701 100.98 47.4101 101.17 47.5101 101.4C47.6101 101.64 47.66 101.94 47.66 102.31V108.72C47.66 109.52 47.6201 110.09 47.5301 110.43L47.5101 110.42Z" fill="url(#paint13_linear_13_953)"/>
<path d="M83.1398 104.53C83.4298 104.03 83.5698 103.45 83.5698 102.8C83.5698 101.86 83.1598 101.12 82.3398 100.55C81.5198 99.99 80.4598 99.71 79.1498 99.71H72.7197V100.34C72.8997 100.35 73.1097 100.37 73.3597 100.41C73.6097 100.44 73.8597 100.5 74.1097 100.57C74.3497 100.65 74.5098 100.78 74.5798 100.94C74.6498 101.1 74.6797 101.29 74.6797 101.5V110.54C74.6797 110.77 74.6397 110.96 74.5497 111.11C74.4597 111.26 74.3198 111.37 74.1198 111.45C73.9998 111.5 73.7897 111.54 73.4897 111.56C73.1897 111.59 72.9597 111.61 72.7997 111.62V112.25H78.8398V111.62C78.5898 111.62 78.3098 111.59 78.0098 111.56C77.7098 111.52 77.4998 111.49 77.3798 111.45C77.1398 111.37 76.9797 111.25 76.9097 111.09C76.8297 110.93 76.7997 110.75 76.7997 110.55V106.75H78.3798C79.0498 106.75 79.6897 106.67 80.2897 106.52C80.8897 106.37 81.4398 106.13 81.9498 105.8C82.4598 105.47 82.8598 105.05 83.1498 104.55L83.1398 104.53ZM80.9998 104.05C80.9298 104.35 80.7797 104.65 80.5497 104.93C80.3297 105.22 79.9897 105.47 79.5397 105.67C79.0897 105.87 78.5097 105.97 77.7997 105.97H76.7897V100.43H78.1898C78.7498 100.43 79.2197 100.51 79.5997 100.66C79.9797 100.81 80.2798 101.03 80.5098 101.3C80.7298 101.56 80.8797 101.86 80.9697 102.21C81.0597 102.56 81.0997 102.9 81.0997 103.23C81.0997 103.47 81.0597 103.74 80.9897 104.05H80.9998Z" fill="url(#paint14_linear_13_953)"/>
<path d="M106.44 111.6C106.27 111.6 106.07 111.56 105.83 111.51C105.59 111.45 105.39 111.39 105.23 111.3C105.01 111.16 104.83 111.03 104.7 110.89C104.57 110.75 104.46 110.56 104.36 110.33L99.6704 99.52H98.8804C98.2104 101.05 97.4504 102.8 96.6004 104.76C95.7504 106.72 94.9704 108.49 94.2604 110.06C94.1204 110.37 93.9804 110.61 93.8304 110.78C93.6804 110.95 93.4804 111.12 93.2104 111.28C93.0404 111.37 92.8304 111.45 92.5804 111.51C92.3304 111.57 92.1104 111.6 91.9404 111.61V112.24H97.2404V111.61C96.7204 111.59 96.2504 111.51 95.8304 111.38C95.4104 111.25 95.2104 111.07 95.2104 110.83C95.2104 110.73 95.2304 110.6 95.2604 110.44C95.2904 110.28 95.3504 110.08 95.4404 109.82C95.5304 109.56 95.6404 109.28 95.7504 108.97C95.8704 108.66 96.0204 108.3 96.2004 107.89H101.14L102.31 110.7C102.34 110.76 102.36 110.83 102.37 110.9C102.38 110.98 102.39 111.04 102.39 111.09C102.39 111.22 102.22 111.33 101.88 111.42C101.54 111.51 101.11 111.57 100.6 111.6V112.23H106.45V111.6H106.44ZM96.5404 107.11L98.6404 102.25L100.77 107.11H96.5404Z" fill="url(#paint15_linear_13_953)"/>
<path d="M127.241 112.35V103.18C127.241 102.54 127.281 102.01 127.361 101.59C127.441 101.17 127.601 100.89 127.841 100.74C128.011 100.65 128.281 100.55 128.661 100.47C129.041 100.38 129.331 100.33 129.511 100.33V99.7H123.791V100.33C124.011 100.34 124.331 100.4 124.751 100.51C125.171 100.62 125.471 100.72 125.661 100.84C125.861 100.97 126.011 101.23 126.121 101.62C126.231 102.01 126.281 102.57 126.281 103.3V109.26L118.371 99.71H114.351V100.34C114.601 100.35 114.931 100.43 115.341 100.57C115.751 100.71 116.071 100.87 116.311 101.07C116.491 101.22 116.631 101.43 116.741 101.7C116.851 101.97 116.901 102.24 116.901 102.51V108.68C116.901 109.5 116.861 110.08 116.771 110.42C116.681 110.76 116.531 111.01 116.291 111.17C116.181 111.25 115.921 111.35 115.501 111.45C115.081 111.55 114.781 111.61 114.601 111.62V112.25H120.371V111.62C120.221 111.62 119.901 111.56 119.431 111.44C118.951 111.33 118.641 111.21 118.491 111.08C118.281 110.92 118.121 110.64 118.021 110.25C117.921 109.86 117.871 109.31 117.871 108.58V102.12L126.401 112.37H127.261L127.241 112.35Z" fill="url(#paint16_linear_13_953)"/>
<path d="M145.96 99.7V100.33C146.15 100.35 146.36 100.36 146.58 100.38C146.8 100.39 147.01 100.43 147.21 100.47C147.4 100.52 147.54 100.58 147.66 100.66C147.77 100.74 147.83 100.85 147.83 100.99C147.83 101.15 147.56 101.65 147.01 102.49C146.46 103.32 145.67 104.48 144.64 105.97C144.12 105.13 143.7 104.46 143.37 103.94C143.05 103.42 142.73 102.9 142.42 102.37C142.31 102.19 142.2 102 142.08 101.8C141.96 101.6 141.86 101.43 141.77 101.27C141.7 101.13 141.64 101.02 141.6 100.94C141.56 100.86 141.54 100.79 141.54 100.76C141.54 100.63 141.68 100.53 141.96 100.46C142.24 100.39 142.71 100.35 143.39 100.34V99.71H137.38V100.34C137.56 100.35 137.76 100.38 137.98 100.43C138.2 100.48 138.39 100.54 138.55 100.63C138.77 100.76 138.96 100.91 139.13 101.08C139.3 101.25 139.49 101.5 139.71 101.84C140.07 102.41 140.49 103.08 140.97 103.88C141.45 104.67 141.89 105.41 142.29 106.1C142.47 106.41 142.62 106.68 142.75 106.93C142.88 107.18 142.94 107.35 142.94 107.45V110.5C142.94 110.72 142.9 110.91 142.81 111.07C142.72 111.22 142.56 111.34 142.32 111.43C142.17 111.48 141.92 111.53 141.55 111.56C141.18 111.59 140.9 111.61 140.72 111.63V112.26H147.31V111.63C147.09 111.63 146.8 111.59 146.45 111.52C146.09 111.45 145.84 111.4 145.71 111.35C145.48 111.26 145.31 111.13 145.22 110.97C145.12 110.81 145.08 110.63 145.08 110.42V108.03C145.08 107.59 145.12 107.26 145.2 107.03C145.28 106.8 145.44 106.5 145.69 106.12C146.34 105.1 146.89 104.25 147.33 103.59C147.77 102.92 148.24 102.27 148.76 101.62C149.02 101.3 149.2 101.1 149.3 101.02C149.39 100.94 149.57 100.83 149.83 100.69C149.94 100.62 150.11 100.55 150.36 100.47C150.6 100.4 150.78 100.36 150.9 100.35V99.7199H146.01L145.96 99.7Z" fill="url(#paint17_linear_13_953)"/>
<path d="M151.85 26.93H105.401L128.63 0.75H23.4405L46.6705 26.93H0.230469L25.9505 55.93L52.8205 86.22L76.0505 60.04L99.2805 86.22L124.56 57.72L124.591 57.69L151.88 26.92L151.85 26.93ZM69.9705 6.22998L52.8005 25.58L35.6305 6.22998H69.9605H69.9705ZM139.651 32.41L122.48 51.76L105.32 32.41H139.651ZM52.8105 33.84L69.8905 53.11H35.7205L52.8105 33.84ZM58.8805 32.41H93.2005L76.0405 51.76L58.8805 32.41ZM99.2605 33.84L116.341 53.1H82.1705L99.2505 33.84H99.2605ZM58.9505 26.92L76.0305 7.65997L93.1105 26.92H58.9405H58.9505ZM99.2605 25.58L82.0905 6.22998H116.42L99.2505 25.58H99.2605ZM46.7405 32.41L29.5805 51.76L12.4205 32.41H46.7405ZM69.9705 58.59L52.8005 77.94L35.6305 58.59H69.9605H69.9705ZM116.42 58.59L99.2505 77.94L82.0805 58.59H116.41H116.42Z" fill="url(#paint18_linear_13_953)"/>
<defs>
<linearGradient id="paint0_linear_13_953" x1="19.2097" y1="131.04" x2="19.2097" y2="-85.5906" gradientUnits="userSpaceOnUse">
<stop stop-color="white"/>
<stop offset="0.33" stop-color="white"/>
<stop offset="0.52" stop-color="white"/>
<stop offset="0.73" stop-color="white"/>
<stop offset="1" stop-color="white"/>
</linearGradient>
<linearGradient id="paint1_linear_13_953" x1="29.64" y1="138.3" x2="29.64" y2="-21.4104" gradientUnits="userSpaceOnUse">
<stop stop-color="white"/>
<stop offset="0.33" stop-color="white"/>
<stop offset="0.52" stop-color="white"/>
<stop offset="0.73" stop-color="white"/>
<stop offset="1" stop-color="white"/>
</linearGradient>
<linearGradient id="paint2_linear_13_953" x1="41.3104" y1="149.16" x2="41.3104" y2="4.66971" gradientUnits="userSpaceOnUse">
<stop stop-color="white"/>
<stop offset="0.33" stop-color="white"/>
<stop offset="0.52" stop-color="white"/>
<stop offset="0.73" stop-color="white"/>
<stop offset="1" stop-color="white"/>
</linearGradient>
<linearGradient id="paint3_linear_13_953" x1="53.5204" y1="207.03" x2="53.5204" y2="-93.1306" gradientUnits="userSpaceOnUse">
<stop stop-color="white"/>
<stop offset="0.33" stop-color="white"/>
<stop offset="0.52" stop-color="white"/>
<stop offset="0.73" stop-color="white"/>
<stop offset="1" stop-color="white"/>
</linearGradient>
<linearGradient id="paint4_linear_13_953" x1="62.3702" y1="236.34" x2="62.3702" y2="-91.8406" gradientUnits="userSpaceOnUse">
<stop stop-color="white"/>
<stop offset="0.33" stop-color="white"/>
<stop offset="0.52" stop-color="white"/>
<stop offset="0.73" stop-color="white"/>
<stop offset="1" stop-color="white"/>
</linearGradient>
<linearGradient id="paint5_linear_13_953" x1="72.7998" y1="180.54" x2="72.7998" y2="40.1201" gradientUnits="userSpaceOnUse">
<stop stop-color="white"/>
<stop offset="0.33" stop-color="white"/>
<stop offset="0.52" stop-color="white"/>
<stop offset="0.73" stop-color="white"/>
<stop offset="1" stop-color="white"/>
</linearGradient>
<linearGradient id="paint6_linear_13_953" x1="84.2298" y1="207.67" x2="84.2298" y2="35.0097" gradientUnits="userSpaceOnUse">
<stop stop-color="white"/>
<stop offset="0.33" stop-color="white"/>
<stop offset="0.52" stop-color="white"/>
<stop offset="0.73" stop-color="white"/>
<stop offset="1" stop-color="white"/>
</linearGradient>
<linearGradient id="paint7_linear_13_953" x1="100.91" y1="206.66" x2="100.91" y2="64.4797" gradientUnits="userSpaceOnUse">
<stop stop-color="white"/>
<stop offset="0.33" stop-color="white"/>
<stop offset="0.52" stop-color="white"/>
<stop offset="0.73" stop-color="white"/>
<stop offset="1" stop-color="white"/>
</linearGradient>
<linearGradient id="paint8_linear_13_953" x1="111.97" y1="238.03" x2="111.97" y2="65.3597" gradientUnits="userSpaceOnUse">
<stop stop-color="white"/>
<stop offset="0.33" stop-color="white"/>
<stop offset="0.52" stop-color="white"/>
<stop offset="0.73" stop-color="white"/>
<stop offset="1" stop-color="white"/>
</linearGradient>
<linearGradient id="paint9_linear_13_953" x1="122.61" y1="260.62" x2="122.61" y2="73.8997" gradientUnits="userSpaceOnUse">
<stop stop-color="white"/>
<stop offset="0.33" stop-color="white"/>
<stop offset="0.52" stop-color="white"/>
<stop offset="0.73" stop-color="white"/>
<stop offset="1" stop-color="white"/>
</linearGradient>
<linearGradient id="paint10_linear_13_953" x1="133.01" y1="262.9" x2="133.01" y2="90.2298" gradientUnits="userSpaceOnUse">
<stop stop-color="white"/>
<stop offset="0.33" stop-color="white"/>
<stop offset="0.52" stop-color="white"/>
<stop offset="0.73" stop-color="white"/>
<stop offset="1" stop-color="white"/>
</linearGradient>
<linearGradient id="paint11_linear_13_953" x1="7.2202" y1="104.96" x2="7.2202" y2="-35.9302" gradientUnits="userSpaceOnUse">
<stop stop-color="white"/>
<stop offset="0.33" stop-color="white"/>
<stop offset="0.52" stop-color="white"/>
<stop offset="0.73" stop-color="white"/>
<stop offset="1" stop-color="white"/>
</linearGradient>
<linearGradient id="paint12_linear_13_953" x1="29.1802" y1="124.96" x2="29.1802" y2="-10.6001" gradientUnits="userSpaceOnUse">
<stop stop-color="white"/>
<stop offset="0.33" stop-color="white"/>
<stop offset="0.52" stop-color="white"/>
<stop offset="0.73" stop-color="white"/>
<stop offset="1" stop-color="white"/>
</linearGradient>
<linearGradient id="paint13_linear_13_953" x1="54.0601" y1="132.88" x2="54.0601" y2="46.16" gradientUnits="userSpaceOnUse">
<stop stop-color="white"/>
<stop offset="0.33" stop-color="white"/>
<stop offset="0.52" stop-color="white"/>
<stop offset="0.73" stop-color="white"/>
<stop offset="1" stop-color="white"/>
</linearGradient>
<linearGradient id="paint14_linear_13_953" x1="78.1497" y1="169.27" x2="78.1497" y2="35.4099" gradientUnits="userSpaceOnUse">
<stop stop-color="white"/>
<stop offset="0.33" stop-color="white"/>
<stop offset="0.52" stop-color="white"/>
<stop offset="0.73" stop-color="white"/>
<stop offset="1" stop-color="white"/>
</linearGradient>
<linearGradient id="paint15_linear_13_953" x1="99.1904" y1="182.63" x2="99.1904" y2="56.27" gradientUnits="userSpaceOnUse">
<stop stop-color="white"/>
<stop offset="0.33" stop-color="white"/>
<stop offset="0.52" stop-color="white"/>
<stop offset="0.73" stop-color="white"/>
<stop offset="1" stop-color="white"/>
</linearGradient>
<linearGradient id="paint16_linear_13_953" x1="121.931" y1="183.02" x2="121.931" y2="83.7899" gradientUnits="userSpaceOnUse">
<stop stop-color="white"/>
<stop offset="0.33" stop-color="white"/>
<stop offset="0.52" stop-color="white"/>
<stop offset="0.73" stop-color="white"/>
<stop offset="1" stop-color="white"/>
</linearGradient>
<linearGradient id="paint17_linear_13_953" x1="144.12" y1="230.19" x2="144.12" y2="97.8" gradientUnits="userSpaceOnUse">
<stop stop-color="white"/>
<stop offset="0.33" stop-color="white"/>
<stop offset="0.52" stop-color="white"/>
<stop offset="0.73" stop-color="white"/>
<stop offset="1" stop-color="white"/>
</linearGradient>
<linearGradient id="paint18_linear_13_953" x1="0.220469" y1="43.48" x2="151.851" y2="43.48" gradientUnits="userSpaceOnUse">
<stop stop-color="white"/>
<stop offset="0.33" stop-color="white"/>
<stop offset="0.52" stop-color="white"/>
<stop offset="0.73" stop-color="white"/>
<stop offset="1" stop-color="white"/>
</linearGradient>
</defs>
</svg>
