<svg width="134" height="154" viewBox="0 0 134 154" fill="none" xmlns="http://www.w3.org/2000/svg">
<path d="M1.88953 153.76H2.78949V148.63H4.41949V147.83H0.269531V148.63H1.88953V153.76Z" fill="url(#paint0_linear_13_974)"/>
<path d="M14.2193 147.83H13.4693L11.3193 153.76H12.2693L12.7193 152.44H14.9693L15.4293 153.76H16.3793L14.2293 147.83H14.2193ZM12.9793 151.64L13.8394 149.05H13.8493L14.7094 151.64H12.9693H12.9793Z" fill="url(#paint1_linear_13_974)"/>
<path d="M25.3592 149.11C25.4592 148.99 25.5792 148.89 25.7292 148.8C25.8792 148.72 26.0592 148.68 26.2792 148.67C26.5692 148.67 26.8092 148.76 27.0092 148.92C27.1992 149.09 27.3392 149.29 27.4092 149.53H28.3592C28.2592 149.03 28.0392 148.62 27.6792 148.28C27.3192 147.95 26.8492 147.78 26.2792 147.77C25.8092 147.77 25.4192 147.89 25.1092 148.1C24.7892 148.31 24.5592 148.56 24.4192 148.83C24.3292 148.97 24.2592 149.16 24.2192 149.4C24.1792 149.63 24.1592 150.09 24.1592 150.78C24.1592 151.47 24.1792 151.92 24.2192 152.16C24.2392 152.29 24.2692 152.39 24.2992 152.48C24.3392 152.56 24.3692 152.65 24.4192 152.74C24.5592 153.01 24.7892 153.26 25.1092 153.46C25.4192 153.68 25.8092 153.79 26.2792 153.8C26.8792 153.79 27.3892 153.58 27.7792 153.19C28.1792 152.79 28.3792 152.29 28.3892 151.7V150.49H26.2792V151.34H27.4892V151.65C27.4892 152.02 27.3692 152.32 27.1392 152.55C26.9092 152.79 26.6192 152.91 26.2692 152.91C26.0592 152.91 25.8792 152.87 25.7192 152.78C25.5692 152.7 25.4392 152.61 25.3492 152.48C25.2292 152.35 25.1592 152.19 25.1192 151.98C25.0792 151.77 25.0492 151.38 25.0492 150.8C25.0492 150.22 25.0692 149.82 25.1192 149.61C25.1592 149.41 25.2392 149.25 25.3492 149.12L25.3592 149.11Z" fill="url(#paint2_linear_13_974)"/>
<path d="M39.5996 147.83V153.76H43.3896V152.91H40.4996V147.83H39.5996Z" fill="url(#paint3_linear_13_974)"/>
<path d="M52.6295 147.83H51.7295V153.76H52.6295V147.83Z" fill="url(#paint4_linear_13_974)"/>
<path d="M61.3799 147.83V153.76H62.2799V149.55H62.2899L64.9799 153.76H65.8299V147.83H64.9299V152.05H64.9099L62.2299 147.83H61.3799Z" fill="url(#paint5_linear_13_974)"/>
<path d="M78.3591 148.68V147.83H74.5791V153.76H78.3591V152.91H75.4791V151.17H77.9391V150.37H75.4791V148.68H78.3591Z" fill="url(#paint6_linear_13_974)"/>
<path d="M96.4798 153.76V147.83H95.5898V150.37H93.2398V147.83H92.3398V153.76H93.2398V151.17H95.5898V153.76H96.4798Z" fill="url(#paint7_linear_13_974)"/>
<path d="M109.019 148.68V147.83H105.239V153.76H109.019V152.91H106.139V151.17H108.599V150.37H106.139V148.68H109.019Z" fill="url(#paint8_linear_13_974)"/>
<path d="M120.329 151.13C121.079 150.84 121.469 150.29 121.479 149.49C121.459 148.94 121.269 148.52 120.889 148.22C120.569 147.96 120.169 147.83 119.679 147.83H117.369V153.76H118.269V151.23H119.419L120.649 153.76H121.719L120.339 151.13H120.329ZM118.269 150.43V148.63H119.679C119.969 148.63 120.189 148.69 120.339 148.82C120.529 148.96 120.629 149.18 120.639 149.49C120.639 149.74 120.559 149.96 120.389 150.14C120.229 150.33 119.969 150.43 119.639 150.43H118.279H118.269Z" fill="url(#paint9_linear_13_974)"/>
<path d="M133.729 148.68V147.83H129.949V153.76H133.729V152.91H130.849V151.17H133.309V150.37H130.849V148.68H133.729Z" fill="url(#paint10_linear_13_974)"/>
<path d="M6.53949 140.84C7.89949 140.84 9.10948 140.48 10.1595 139.76C11.2195 139.04 11.9495 138.04 12.3695 136.76H8.81952C8.35952 137.65 7.60954 138.1 6.58954 138.1C5.56954 138.1 4.7595 137.78 4.1795 137.14C3.5895 136.5 3.2995 135.65 3.2995 134.58C3.2995 133.51 3.5895 132.66 4.1795 132.02C4.7695 131.38 5.56954 131.06 6.58954 131.06C7.60954 131.06 8.35952 131.51 8.81952 132.4H12.3695C11.9495 131.12 11.2095 130.12 10.1595 129.4C9.09948 128.68 7.88949 128.32 6.53949 128.32C4.78949 128.32 3.29954 128.91 2.08954 130.09C0.879539 131.27 0.269531 132.76 0.269531 134.58C0.269531 136.4 0.879539 137.89 2.08954 139.07C3.29954 140.25 4.78949 140.84 6.53949 140.84Z" fill="url(#paint11_linear_13_974)"/>
<path d="M33.0796 134.59C33.0796 132.78 32.4796 131.28 31.2796 130.1C30.0796 128.92 28.5996 128.33 26.8396 128.33C25.0796 128.33 23.5896 128.92 22.3796 130.1C21.1696 131.28 20.5596 132.77 20.5596 134.59C20.5596 136.41 21.1696 137.9 22.3796 139.09C23.5896 140.27 25.0796 140.87 26.8296 140.87C28.5796 140.87 30.0596 140.28 31.2696 139.09C32.4796 137.91 33.0796 136.41 33.0796 134.59ZM29.1696 137.15C28.5796 137.79 27.7996 138.11 26.8196 138.11C25.8396 138.11 25.0495 137.79 24.4695 137.15C23.8795 136.51 23.5896 135.66 23.5896 134.59C23.5896 133.52 23.8795 132.67 24.4695 132.03C25.0595 131.39 25.8396 131.07 26.8196 131.07C27.7996 131.07 28.5896 131.39 29.1696 132.03C29.7596 132.67 30.0496 133.52 30.0496 134.59C30.0496 135.66 29.7596 136.51 29.1696 137.15Z" fill="url(#paint12_linear_13_974)"/>
<path d="M55.8099 128.51H52.4L48.9 136.94L45.3799 128.51H41.96V140.74H44.9399V133.84L47.78 140.74H49.9899L52.83 133.84V140.74H55.8099V128.51Z" fill="url(#paint13_linear_13_974)"/>
<path d="M68.3794 135.98H70.2294C71.0794 135.98 71.8094 135.86 72.4294 135.61C73.0494 135.36 73.5194 135.04 73.8294 134.64C74.4194 133.87 74.7194 133.08 74.7194 132.25C74.7194 131.22 74.3194 130.33 73.5394 129.6C72.7494 128.87 71.6494 128.5 70.2294 128.5H65.3994V140.73H68.3794V135.97V135.98ZM68.3794 130.77H70.2294C70.6694 130.77 71.0294 130.91 71.2894 131.19C71.5594 131.47 71.6894 131.83 71.6894 132.26C71.6894 132.69 71.5594 133.05 71.2994 133.31C71.0394 133.58 70.6794 133.71 70.2294 133.71H68.3794V130.77Z" fill="url(#paint14_linear_13_974)"/>
<path d="M86.5791 128.47L82.3291 140.74H85.4991L86.1791 138.68H90.5691L91.2491 140.74H94.4391L90.2091 128.47H86.5891H86.5791ZM86.9291 136.42L88.3791 132.06L89.8291 136.42H86.9391H86.9291Z" fill="url(#paint15_linear_13_974)"/>
<path d="M113.82 140.74V128.47H110.84V136.19L105.86 128.47H102.88V140.74H105.86V133.02L110.84 140.74H113.82Z" fill="url(#paint16_linear_13_974)"/>
<path d="M126.589 136.8V140.74H129.569V136.8L133.799 128.51H130.419L128.089 134.03L125.739 128.51H122.359L126.589 136.8Z" fill="url(#paint17_linear_13_974)"/>
<path d="M75.1793 15.0901C77.0593 17.7301 78.5793 20.6401 79.6693 23.7601C81.0293 23.9401 82.3793 24.1901 83.6893 24.5001C83.9093 24.5501 84.1292 24.6101 84.3492 24.6601C84.3992 24.6701 84.4593 24.6901 84.5093 24.7001C84.7893 24.7701 85.0692 24.8501 85.3492 24.9301C85.3492 24.9301 85.3493 24.9301 85.3593 24.9301C85.6293 25.0001 85.8992 25.0801 86.1592 25.1701C86.3892 25.2401 86.6192 25.3101 86.8492 25.3901C87.0892 25.4701 87.3193 25.5501 87.5593 25.6301C87.7793 25.7001 87.9992 25.7801 88.2192 25.8701C88.4392 25.9501 88.6493 26.0301 88.8693 26.1201C90.1393 26.6101 91.3793 27.1701 92.5793 27.7901C92.8693 27.9401 93.1493 28.0801 93.4293 28.2401C93.9093 28.5001 94.3792 28.7701 94.8492 29.0501C95.0492 29.1701 95.2493 29.2901 95.4393 29.4101C95.5293 29.4601 95.6292 29.5201 95.7192 29.5801C95.9292 29.7101 96.1393 29.8501 96.3393 29.9901C96.5393 30.1201 96.7393 30.2501 96.9293 30.3901C99.2293 31.9601 101.349 33.7801 103.269 35.7901C103.499 36.0201 103.709 36.2501 103.919 36.4901C104.099 36.6801 104.269 36.8801 104.439 37.0701C104.719 37.3901 104.989 37.7101 105.259 38.0401C105.429 38.2301 105.579 38.4301 105.739 38.6301C105.949 38.9001 106.159 39.1701 106.359 39.4401C106.549 39.7001 106.739 39.9601 106.919 40.2201C107.109 40.4801 107.289 40.7401 107.469 41.0101C107.829 41.5401 108.169 42.0701 108.499 42.6201C108.669 42.8901 108.829 43.1701 108.989 43.4501C109.149 43.7301 109.309 44.0101 109.459 44.2901C109.789 44.9001 110.109 45.5201 110.399 46.1401C110.519 46.3901 110.639 46.6401 110.749 46.8901C110.859 47.1401 110.969 47.3901 111.079 47.6401C111.179 47.8601 111.269 48.0801 111.359 48.3101C111.439 48.5201 111.529 48.7201 111.609 48.9301C111.809 49.4501 112.009 49.9801 112.179 50.5101C112.289 50.8201 112.389 51.1301 112.479 51.4401C112.479 51.4401 112.479 51.4601 112.489 51.4801C112.579 51.7801 112.669 52.0801 112.749 52.3801C112.999 53.2401 113.209 54.1101 113.399 54.9901C113.449 55.2101 113.489 55.4401 113.539 55.6601C113.559 55.7901 113.589 55.9201 113.609 56.0401C113.639 56.2101 113.669 56.3801 113.699 56.5601C113.739 56.8101 113.779 57.0501 113.819 57.3001C113.859 57.5501 113.899 57.8001 113.929 58.0501C113.939 58.1601 113.959 58.2701 113.969 58.3801C113.989 58.5601 114.009 58.7501 114.029 58.9301C114.049 59.1101 114.069 59.2801 114.079 59.4601C114.109 59.7301 114.129 60.0001 114.149 60.2701C114.169 60.5901 114.189 60.9101 114.209 61.2301C114.229 61.5701 114.239 61.9101 114.249 62.2501C114.249 62.5901 114.259 62.9301 114.259 63.2701C114.259 85.2301 96.3893 103.1 74.4293 103.1C74.0893 103.1 73.7393 103.1 73.3993 103.09C73.0593 103.09 72.7193 103.07 72.3793 103.05C72.0493 103.04 71.7093 103.02 71.3793 102.99H71.3393C71.0293 102.97 70.7192 102.94 70.4092 102.91C70.1392 102.88 69.8793 102.85 69.6093 102.82C69.4393 102.8 69.2793 102.78 69.1093 102.76C68.8693 102.73 68.6392 102.7 68.4092 102.66C68.3892 102.66 68.3692 102.66 68.3492 102.66C68.1092 102.63 67.8793 102.59 67.6493 102.55C67.4493 102.52 67.2493 102.48 67.0593 102.44C66.7693 102.39 66.4793 102.33 66.1993 102.27C64.6493 101.94 63.1193 101.52 61.6293 101.01C61.3393 100.91 61.0493 100.81 60.7593 100.7C60.4793 100.6 60.1992 100.49 59.9092 100.38C59.5292 100.23 59.1493 100.07 58.7693 99.9101C58.5293 99.8101 58.2893 99.7101 58.0593 99.6001C57.8093 99.4901 57.5492 99.3601 57.2892 99.2401C56.9692 99.0801 56.6393 98.9301 56.3193 98.7601C56.0593 98.6201 55.7893 98.4901 55.5293 98.3401C55.2293 98.1701 54.9293 98.0101 54.6293 97.8301C54.3493 97.6701 54.0793 97.5101 53.7993 97.3401C53.7993 97.3401 53.7893 97.3401 53.7793 97.3401C53.2693 97.0401 52.7792 96.7201 52.2892 96.3901C52.2492 96.3701 52.2093 96.3401 52.1793 96.3101C51.9193 96.1301 51.6593 95.9501 51.3993 95.7701C51.1393 95.5901 50.8793 95.4001 50.6293 95.2101C50.3693 95.0201 50.1193 94.8301 49.8693 94.6301C49.6593 94.4701 49.4593 94.3101 49.2593 94.1401C48.9393 93.8801 48.6193 93.6101 48.2993 93.3401C48.0893 93.1601 47.8793 92.9701 47.6793 92.7901C47.4393 92.5701 47.2092 92.3601 46.9792 92.1301C46.7492 91.9101 46.5192 91.6901 46.2892 91.4601C45.8492 91.0201 45.4193 90.5701 44.9993 90.1101C44.7793 89.8601 44.5493 89.6101 44.3393 89.3601C43.9193 88.8801 43.5193 88.4001 43.1293 87.9001C42.8893 87.6001 42.6593 87.2901 42.4293 86.9801C42.2893 86.8001 42.1593 86.6201 42.0293 86.4301C41.9893 86.3701 41.9393 86.3101 41.8993 86.2501C41.7393 86.0201 41.5793 85.7901 41.4193 85.5601C41.2593 85.3301 41.1192 85.1101 40.9692 84.8801C40.7592 84.5601 40.5492 84.2301 40.3492 83.9001C40.0292 83.3701 39.7193 82.8301 39.4193 82.2801C38.8393 81.2301 38.3193 80.1401 37.8393 79.0201C37.7293 78.7601 37.6193 78.5101 37.5193 78.2501C37.5193 78.2501 37.5193 78.2301 37.5093 78.2101C37.4293 78.0101 37.3493 77.8201 37.2793 77.6301C37.2093 77.4501 37.1393 77.2701 37.0693 77.0901C36.9993 76.9001 36.9293 76.7101 36.8693 76.5201C36.7693 76.2501 36.6793 75.9801 36.5893 75.7101C36.4993 75.4401 36.4093 75.1601 36.3293 74.8801C36.3193 74.8601 36.3093 74.8301 36.3093 74.8001C36.2293 74.5401 36.1493 74.2601 36.0693 73.9901C35.9893 73.7001 35.9093 73.4101 35.8293 73.1201C35.6093 72.2401 35.4093 71.3501 35.2493 70.4601C35.1993 70.1601 35.1492 69.8601 35.0992 69.5601C35.0492 69.2601 35.0092 68.9601 34.9692 68.6501C31.8492 67.5701 28.9293 66.0501 26.2793 64.1801C26.7293 90.3901 48.1193 111.5 74.4393 111.5C100.759 111.5 122.609 89.9401 122.609 63.3301C122.609 36.7201 101.429 15.5501 75.1592 15.1701L75.1793 15.0901ZM34.8193 59.4701C34.8493 59.1801 34.8792 58.8801 34.9092 58.5901C34.9392 58.3001 34.9793 58.0001 35.0193 57.7101C35.0593 57.4201 35.0993 57.1301 35.1493 56.8401C35.1893 56.5501 35.2493 56.2601 35.2993 55.9801C35.5193 54.8301 35.7793 53.6901 36.0893 52.5801C36.1593 52.3101 36.2493 52.0301 36.3293 51.7501C36.3893 51.5301 36.4593 51.3201 36.5293 51.1001C36.5493 51.0101 36.5793 50.9101 36.6193 50.8301C36.6993 50.5901 36.7793 50.3501 36.8693 50.1101C36.9393 49.9001 37.0092 49.6901 37.0992 49.4801C37.1492 49.3501 37.1993 49.2201 37.2493 49.0901C37.4293 48.6201 37.6093 48.1701 37.7993 47.7101C38.0293 47.1801 38.2593 46.6501 38.5193 46.1301C38.6393 45.8801 38.7593 45.6301 38.8793 45.3901C38.9493 45.2301 39.0393 45.0801 39.1193 44.9201C39.2093 44.7301 39.3092 44.5501 39.4092 44.3701C39.4392 44.3101 39.4793 44.2401 39.5193 44.1801C39.6493 43.9301 39.7893 43.6901 39.9293 43.4401C40.0593 43.2201 40.1893 43.0001 40.3093 42.7801C40.4293 42.5901 40.5392 42.4001 40.6592 42.2201C40.7692 42.0501 40.8793 41.8801 40.9893 41.7001C41.4493 40.9901 41.9293 40.2901 42.4293 39.6201C42.5993 39.3901 42.7693 39.1701 42.9393 38.9401C43.0693 38.7701 43.1993 38.6001 43.3393 38.4301C43.7393 37.9301 44.1493 37.4301 44.5793 36.9501C44.7493 36.7501 44.9293 36.5501 45.1093 36.3601C45.4893 35.9401 45.8693 35.5401 46.2793 35.1401C46.4393 34.9801 46.5993 34.8201 46.7693 34.6601C47.0293 34.4101 47.2792 34.1601 47.5392 33.9301C47.7292 33.7501 47.9193 33.5801 48.1193 33.4101C48.4693 33.1001 48.8293 32.8001 49.1793 32.5001C49.3593 32.3501 49.5492 32.2001 49.7292 32.0501C50.5292 31.4101 51.3593 30.8001 52.2093 30.2301C52.4493 30.0601 52.6993 29.9001 52.9493 29.7401C53.1493 29.6101 53.3392 29.4901 53.5392 29.3701C53.6892 29.2801 53.8393 29.1801 53.9893 29.1001C54.2093 28.9601 54.4292 28.8301 54.6592 28.7101C54.9392 28.5401 55.2193 28.3901 55.4993 28.2401C55.7793 28.0801 56.0692 27.9301 56.3492 27.7901C56.6292 27.6401 56.9193 27.5001 57.2093 27.3601C57.2293 27.3601 57.2393 27.3501 57.2593 27.3401C57.7693 27.0901 58.2893 26.8601 58.8093 26.6301C59.1993 26.4601 59.5893 26.3001 59.9893 26.1501C60.2493 26.0401 60.5093 25.9401 60.7793 25.8501C61.0093 25.7601 61.2492 25.6801 61.4792 25.6001C61.5992 25.5601 61.7193 25.5201 61.8393 25.4701C62.0993 25.3901 62.3593 25.3001 62.6193 25.2201C62.9293 25.1201 63.2393 25.0301 63.5593 24.9401C63.8693 24.8501 64.1893 24.7601 64.5093 24.6801C64.7893 24.6101 65.0692 24.5401 65.3492 24.4701C65.5592 24.4201 65.7793 24.3701 65.9893 24.3301C66.0793 24.3101 66.1793 24.2901 66.2693 24.2701C66.4293 24.2401 66.5893 24.2101 66.7593 24.1701C67.0393 24.1201 67.3293 24.0601 67.6093 24.0101C67.8193 23.9801 68.0192 23.9401 68.2192 23.9101C68.4392 23.8701 68.6493 23.8401 68.8693 23.8101C69.4293 23.7301 69.9893 23.6601 70.5593 23.6101C69.1593 20.7601 67.2492 18.1901 64.9692 16.0101C45.9292 19.8201 30.9393 34.8401 27.1993 53.9001C29.3793 56.1801 31.9493 58.0701 34.8093 59.4701H34.8193Z" fill="url(#paint18_linear_13_974)"/>
<path d="M81.0597 28.95C78.9197 28.54 76.7197 28.32 74.4597 28.32C73.7597 28.32 73.0597 28.34 72.3797 28.38C72.9897 30.62 73.3197 32.9801 73.3197 35.4001C73.3197 50.1601 61.3097 62.17 46.5497 62.17C44.1497 62.17 41.8197 61.85 39.6097 61.25C39.5797 61.91 39.5597 62.5601 39.5597 63.2301C39.5597 65.5201 39.7797 67.76 40.2097 69.93C42.2697 70.31 44.3897 70.5 46.5697 70.5C65.9597 70.5 81.6797 54.78 81.6797 35.39C81.6797 33.18 81.4697 31.02 81.0897 28.93L81.0597 28.95ZM46.5397 0.300049C27.1497 0.300049 11.4297 16.0201 11.4297 35.41C11.4297 44.99 15.2697 53.67 21.4797 60C21.7097 56.17 22.3397 52.42 23.3597 48.8C21.0697 44.86 19.7697 40.28 19.7697 35.41C19.7697 20.65 31.7797 8.64005 46.5397 8.64005C51.3897 8.64005 55.9497 9.93005 59.8697 12.2C63.4897 11.17 67.2297 10.53 71.0597 10.29C64.7397 4.11005 56.0797 0.300049 46.5397 0.300049Z" fill="url(#paint19_linear_13_974)"/>
<defs>
<linearGradient id="paint0_linear_13_974" x1="2.33951" y1="175.41" x2="2.33951" y2="-33.0197" gradientUnits="userSpaceOnUse">
<stop stop-color="white"/>
<stop offset="0.33" stop-color="white"/>
<stop offset="0.52" stop-color="white"/>
<stop offset="0.73" stop-color="white"/>
<stop offset="1" stop-color="white"/>
</linearGradient>
<linearGradient id="paint1_linear_13_974" x1="13.8393" y1="184.01" x2="13.8393" y2="7.71025" gradientUnits="userSpaceOnUse">
<stop stop-color="white"/>
<stop offset="0.33" stop-color="white"/>
<stop offset="0.52" stop-color="white"/>
<stop offset="0.73" stop-color="white"/>
<stop offset="1" stop-color="white"/>
</linearGradient>
<linearGradient id="paint2_linear_13_974" x1="26.2692" y1="205.14" x2="26.2692" y2="7.00005" gradientUnits="userSpaceOnUse">
<stop stop-color="white"/>
<stop offset="0.33" stop-color="white"/>
<stop offset="0.52" stop-color="white"/>
<stop offset="0.73" stop-color="white"/>
<stop offset="1" stop-color="white"/>
</linearGradient>
<linearGradient id="paint3_linear_13_974" x1="41.4896" y1="237.53" x2="41.4896" y2="10.3102" gradientUnits="userSpaceOnUse">
<stop stop-color="white"/>
<stop offset="0.33" stop-color="white"/>
<stop offset="0.52" stop-color="white"/>
<stop offset="0.73" stop-color="white"/>
<stop offset="1" stop-color="white"/>
</linearGradient>
<linearGradient id="paint4_linear_13_974" x1="52.1795" y1="366.49" x2="52.1795" y2="-107.01" gradientUnits="userSpaceOnUse">
<stop stop-color="white"/>
<stop offset="0.33" stop-color="white"/>
<stop offset="0.52" stop-color="white"/>
<stop offset="0.73" stop-color="white"/>
<stop offset="1" stop-color="white"/>
</linearGradient>
<linearGradient id="paint5_linear_13_974" x1="63.5999" y1="238.11" x2="63.5999" y2="73.8002" gradientUnits="userSpaceOnUse">
<stop stop-color="white"/>
<stop offset="0.33" stop-color="white"/>
<stop offset="0.52" stop-color="white"/>
<stop offset="0.73" stop-color="white"/>
<stop offset="1" stop-color="white"/>
</linearGradient>
<linearGradient id="paint6_linear_13_974" x1="76.4691" y1="266.16" x2="76.4691" y2="79.1602" gradientUnits="userSpaceOnUse">
<stop stop-color="white"/>
<stop offset="0.33" stop-color="white"/>
<stop offset="0.52" stop-color="white"/>
<stop offset="0.73" stop-color="white"/>
<stop offset="1" stop-color="white"/>
</linearGradient>
<linearGradient id="paint7_linear_13_974" x1="94.4098" y1="277.26" x2="94.4098" y2="103.31" gradientUnits="userSpaceOnUse">
<stop stop-color="white"/>
<stop offset="0.33" stop-color="white"/>
<stop offset="0.52" stop-color="white"/>
<stop offset="0.73" stop-color="white"/>
<stop offset="1" stop-color="white"/>
</linearGradient>
<linearGradient id="paint8_linear_13_974" x1="107.129" y1="302.54" x2="107.129" y2="115.55" gradientUnits="userSpaceOnUse">
<stop stop-color="white"/>
<stop offset="0.33" stop-color="white"/>
<stop offset="0.52" stop-color="white"/>
<stop offset="0.73" stop-color="white"/>
<stop offset="1" stop-color="white"/>
</linearGradient>
<linearGradient id="paint9_linear_13_974" x1="119.539" y1="315.28" x2="119.539" y2="130.96" gradientUnits="userSpaceOnUse">
<stop stop-color="white"/>
<stop offset="0.33" stop-color="white"/>
<stop offset="0.52" stop-color="white"/>
<stop offset="0.73" stop-color="white"/>
<stop offset="1" stop-color="white"/>
</linearGradient>
<linearGradient id="paint10_linear_13_974" x1="131.839" y1="333.25" x2="131.839" y2="146.25" gradientUnits="userSpaceOnUse">
<stop stop-color="white"/>
<stop offset="0.33" stop-color="white"/>
<stop offset="0.52" stop-color="white"/>
<stop offset="0.73" stop-color="white"/>
<stop offset="1" stop-color="white"/>
</linearGradient>
<linearGradient id="paint11_linear_13_974" x1="6.31952" y1="158.61" x2="6.31952" y2="8.89017" gradientUnits="userSpaceOnUse">
<stop stop-color="white"/>
<stop offset="0.33" stop-color="white"/>
<stop offset="0.52" stop-color="white"/>
<stop offset="0.73" stop-color="white"/>
<stop offset="1" stop-color="white"/>
</linearGradient>
<linearGradient id="paint12_linear_13_974" x1="26.8096" y1="178.38" x2="26.8096" y2="30.3301" gradientUnits="userSpaceOnUse">
<stop stop-color="white"/>
<stop offset="0.33" stop-color="white"/>
<stop offset="0.52" stop-color="white"/>
<stop offset="0.73" stop-color="white"/>
<stop offset="1" stop-color="white"/>
</linearGradient>
<linearGradient id="paint13_linear_13_974" x1="48.8899" y1="185.89" x2="48.8899" y2="70.01" gradientUnits="userSpaceOnUse">
<stop stop-color="white"/>
<stop offset="0.33" stop-color="white"/>
<stop offset="0.52" stop-color="white"/>
<stop offset="0.73" stop-color="white"/>
<stop offset="1" stop-color="white"/>
</linearGradient>
<linearGradient id="paint14_linear_13_974" x1="70.0594" y1="233.82" x2="70.0594" y2="63.14" gradientUnits="userSpaceOnUse">
<stop stop-color="white"/>
<stop offset="0.33" stop-color="white"/>
<stop offset="0.52" stop-color="white"/>
<stop offset="0.73" stop-color="white"/>
<stop offset="1" stop-color="white"/>
</linearGradient>
<linearGradient id="paint15_linear_13_974" x1="88.3891" y1="241.03" x2="88.3891" y2="88.58" gradientUnits="userSpaceOnUse">
<stop stop-color="white"/>
<stop offset="0.33" stop-color="white"/>
<stop offset="0.52" stop-color="white"/>
<stop offset="0.73" stop-color="white"/>
<stop offset="1" stop-color="white"/>
</linearGradient>
<linearGradient id="paint16_linear_13_974" x1="108.35" y1="253.7" x2="108.35" y2="111.5" gradientUnits="userSpaceOnUse">
<stop stop-color="white"/>
<stop offset="0.33" stop-color="white"/>
<stop offset="0.52" stop-color="white"/>
<stop offset="0.73" stop-color="white"/>
<stop offset="1" stop-color="white"/>
</linearGradient>
<linearGradient id="paint17_linear_13_974" x1="128.079" y1="291.47" x2="128.079" y2="130.66" gradientUnits="userSpaceOnUse">
<stop stop-color="white"/>
<stop offset="0.33" stop-color="white"/>
<stop offset="0.52" stop-color="white"/>
<stop offset="0.73" stop-color="white"/>
<stop offset="1" stop-color="white"/>
</linearGradient>
<linearGradient id="paint18_linear_13_974" x1="26.3093" y1="63.2501" x2="122.629" y2="63.2501" gradientUnits="userSpaceOnUse">
<stop stop-color="white"/>
<stop offset="0.33" stop-color="white"/>
<stop offset="0.52" stop-color="white"/>
<stop offset="0.73" stop-color="white"/>
<stop offset="1" stop-color="white"/>
</linearGradient>
<linearGradient id="paint19_linear_13_974" x1="11.4397" y1="35.4" x2="81.6497" y2="35.4" gradientUnits="userSpaceOnUse">
<stop stop-color="white"/>
<stop offset="0.33" stop-color="white"/>
<stop offset="0.52" stop-color="white"/>
<stop offset="0.73" stop-color="white"/>
<stop offset="1" stop-color="white"/>
</linearGradient>
</defs>
</svg>
