<svg width="170" height="157" viewBox="0 0 170 157" fill="none" xmlns="http://www.w3.org/2000/svg">
<path d="M51.1697 109.64V109.62L47.0497 102.49L14.4197 45.97H6.17969L42.9297 109.62V109.64H42.9397H51.1597H51.1697Z" fill="url(#paint0_linear_13_732)"/>
<path d="M84.0894 109.64V109.62L79.9694 102.49L75.8594 95.37L71.7394 88.24L67.6294 81.11L63.5094 73.98L47.3394 45.97H39.1094L59.3894 81.11L63.5094 88.24L67.6294 95.37L71.7394 102.49L75.8594 109.62L75.8494 109.64H75.8594H84.0794H84.0894Z" fill="url(#paint1_linear_13_732)"/>
<path d="M96.4293 102.49L92.3193 95.37L88.1993 88.24L84.0894 81.11L79.9693 73.98L75.8593 66.86L71.7393 59.73L63.7993 45.97H55.5693L67.6193 66.85L75.8593 81.11L79.9693 88.24L84.0894 95.37L88.1993 102.49L92.3193 109.62L92.3093 109.64H92.3193H100.539H100.549V109.62L96.4293 102.49Z" fill="url(#paint2_linear_13_732)"/>
<path d="M114.169 0.48999H105.939L75.8994 52.53L80.0094 59.66L114.169 0.48999Z" fill="url(#paint3_linear_13_732)"/>
<path d="M59.3994 109.64H67.6194H67.6294V109.62L63.5094 102.49L59.3994 95.37L55.2794 88.24L30.8794 45.97H22.6494L51.1594 95.36L55.2794 102.49L59.3994 109.62L59.3894 109.64H59.3994Z" fill="url(#paint4_linear_13_732)"/>
<path d="M88.2399 73.91L130.63 0.48999H122.4L84.1299 66.78L84.1699 66.86L88.2399 73.91Z" fill="url(#paint5_linear_13_732)"/>
<path d="M96.4694 88.17L147.089 0.48999H138.859L92.3594 81.04L92.3994 81.11L96.4694 88.17Z" fill="url(#paint6_linear_13_732)"/>
<path d="M163.55 0.48999H155.32L100.59 95.29L100.63 95.37L104.7 102.42L163.55 0.48999Z" fill="url(#paint7_linear_13_732)"/>
<path d="M11.4499 139.4C10.6399 140.15 9.5299 140.61 8.3299 140.61C5.7799 140.61 3.71991 138.57 3.71991 136.02C3.71991 133.47 5.7799 131.43 8.3299 131.43C9.5199 131.43 10.6399 131.9 11.4499 132.66L13.6199 130.47C12.2399 129.15 10.3799 128.35 8.3399 128.35C4.1099 128.35 0.669922 131.79 0.669922 136.02C0.669922 140.25 4.1099 143.69 8.3399 143.69C10.3799 143.69 12.2499 142.88 13.6199 141.57L11.4499 139.4Z" fill="url(#paint8_linear_13_732)"/>
<path d="M33.8292 128.35C29.5992 128.35 26.1592 131.79 26.1592 136.02C26.1592 140.25 29.5992 143.69 33.8292 143.69C38.0592 143.69 41.4992 140.25 41.4992 136.02C41.4992 131.79 38.0592 128.35 33.8292 128.35ZM33.8292 140.63C31.2792 140.63 29.2192 138.57 29.2192 136.02C29.2192 133.47 31.2792 131.43 33.8292 131.43C36.3792 131.43 38.4192 133.49 38.4192 136.02C38.4192 138.55 36.3592 140.63 33.8292 140.63Z" fill="url(#paint9_linear_13_732)"/>
<path d="M62.8398 139.56L58.3498 128.35H55.0498V143.69H58.1098V136.02L61.1798 143.69H64.4798L67.5598 136.02V143.69H70.6098V128.35H67.3098L62.8398 139.56Z" fill="url(#paint10_linear_13_732)"/>
<path d="M88.46 128.35H84.1699V143.69H87.2299V137.56H88.4799C91.0099 137.56 93.0499 135.5 93.0499 132.97C93.0499 130.44 91.01 128.36 88.46 128.36V128.35ZM88.46 134.48H87.2299V131.42H88.46C89.31 131.42 89.9999 132.11 89.9999 132.96C89.9999 133.81 89.31 134.48 88.46 134.48Z" fill="url(#paint11_linear_13_732)"/>
<path d="M110.13 128.35L104.59 143.69H107.85L109.41 139.4H114.12L115.68 143.69H118.94L113.4 128.35H110.14H110.13ZM110.51 136.32L111.74 132.86L112.99 136.32H110.5H110.51Z" fill="url(#paint12_linear_13_732)"/>
<path d="M144.85 128.35H141.8V138.59L135.67 128.35H132.08V143.69H135.14V133.47L141.29 143.69H144.85V128.35Z" fill="url(#paint13_linear_13_732)"/>
<path d="M165.07 143.69V136.38L169.07 128.35H165.65L163.55 132.6L161.42 128.35H158L162.01 136.38V143.69H165.07Z" fill="url(#paint14_linear_13_732)"/>
<path d="M0.639648 151.14H2.40964V156.76H3.39963V151.14H5.17963V150.26H0.639648V151.14Z" fill="url(#paint15_linear_13_732)"/>
<path d="M12.36 150.26L10 156.76H11.04L11.54 155.31H14L14.5 156.76H15.54L13.18 150.26H12.36ZM11.83 154.43L12.77 151.59H12.79L13.73 154.43H11.83Z" fill="url(#paint16_linear_13_732)"/>
<path d="M23.6701 154.11H24.9901V154.45C24.9901 154.86 24.8601 155.19 24.6101 155.44C24.3601 155.7 24.0401 155.83 23.6601 155.83C23.4301 155.83 23.2301 155.78 23.0601 155.68C22.8901 155.6 22.7501 155.49 22.6501 155.35C22.5201 155.21 22.4401 155.03 22.4001 154.8C22.3501 154.57 22.3301 154.14 22.3301 153.5C22.3301 152.86 22.3501 152.43 22.4001 152.19C22.4401 151.97 22.5301 151.79 22.6501 151.65C22.7501 151.52 22.8901 151.4 23.0601 151.32C23.2301 151.23 23.4301 151.19 23.6601 151.18C23.9801 151.18 24.2401 151.28 24.4601 151.45C24.6701 151.63 24.8201 151.86 24.9001 152.12H25.9401C25.8401 151.58 25.5901 151.12 25.1901 150.75C24.7901 150.38 24.2801 150.2 23.6601 150.19C23.1501 150.19 22.7201 150.32 22.3801 150.56C22.0301 150.79 21.7801 151.06 21.6201 151.36C21.5201 151.52 21.4501 151.72 21.4001 151.98C21.3601 152.24 21.3301 152.74 21.3301 153.5C21.3301 154.26 21.3501 154.75 21.4001 155.01C21.4201 155.15 21.4501 155.27 21.4901 155.36C21.5301 155.45 21.5701 155.54 21.6201 155.64C21.7801 155.94 22.0301 156.2 22.3801 156.43C22.7201 156.67 23.1501 156.79 23.6601 156.8C24.3201 156.79 24.8701 156.56 25.3101 156.13C25.7401 155.69 25.9701 155.14 25.9801 154.49V153.17H23.6701V154.1V154.11Z" fill="url(#paint17_linear_13_732)"/>
<path d="M33.5896 150.26H32.5996V156.76H36.7496V155.83H33.5896V150.26Z" fill="url(#paint18_linear_13_732)"/>
<path d="M44.1492 150.26H43.1592V156.76H44.1492V150.26Z" fill="url(#paint19_linear_13_732)"/>
<path d="M54.8793 154.88H54.8593L51.9193 150.26H50.9893V156.76H51.9692V152.14H51.9893L54.9293 156.76H55.8593V150.26H54.8793V154.88Z" fill="url(#paint20_linear_13_732)"/>
<path d="M62.71 156.76H66.8599V155.83H63.7V153.92H66.4V153.04H63.7V151.19H66.8599V150.26H62.71V156.76Z" fill="url(#paint21_linear_13_732)"/>
<path d="M83.0392 154.11H84.3592V154.45C84.3592 154.86 84.2292 155.19 83.9792 155.44C83.7292 155.7 83.4092 155.83 83.0292 155.83C82.7992 155.83 82.5992 155.78 82.4292 155.68C82.2592 155.6 82.1192 155.49 82.0192 155.35C81.8892 155.21 81.8092 155.03 81.7692 154.8C81.7192 154.57 81.6992 154.14 81.6992 153.5C81.6992 152.86 81.7192 152.43 81.7692 152.19C81.8092 151.97 81.8992 151.79 82.0192 151.65C82.1192 151.52 82.2592 151.4 82.4292 151.32C82.5992 151.23 82.7992 151.19 83.0292 151.18C83.3392 151.18 83.6092 151.28 83.8292 151.45C84.0392 151.63 84.1892 151.86 84.2692 152.12H85.3092C85.2092 151.58 84.9592 151.12 84.5592 150.75C84.1592 150.38 83.6492 150.2 83.0292 150.19C82.5192 150.19 82.0892 150.32 81.7492 150.56C81.3992 150.79 81.1492 151.06 80.9892 151.36C80.8892 151.52 80.8192 151.72 80.7692 151.98C80.7292 152.24 80.6992 152.74 80.6992 153.5C80.6992 154.26 80.7192 154.75 80.7692 155.01C80.7892 155.15 80.8192 155.27 80.8592 155.36C80.8992 155.45 80.9392 155.54 80.9892 155.64C81.1492 155.94 81.3992 156.2 81.7492 156.43C82.0892 156.67 82.5192 156.79 83.0292 156.8C83.6892 156.79 84.2392 156.56 84.6792 156.13C85.1092 155.69 85.3392 155.14 85.3492 154.49V153.17H83.0392V154.1V154.11Z" fill="url(#paint22_linear_13_732)"/>
<path d="M96.11 151.37C95.96 151.07 95.71 150.8 95.37 150.57C95.03 150.33 94.59 150.21 94.08 150.2C93.57 150.2 93.14 150.33 92.8 150.57C92.45 150.8 92.2 151.07 92.04 151.37C91.94 151.53 91.87 151.73 91.82 151.99C91.78 152.25 91.75 152.75 91.75 153.51C91.75 154.27 91.77 154.76 91.82 155.02C91.84 155.16 91.87 155.28 91.91 155.37C91.95 155.46 91.99 155.55 92.04 155.65C92.2 155.95 92.45 156.21 92.8 156.44C93.14 156.68 93.57 156.8 94.08 156.81C94.6 156.8 95.03 156.67 95.37 156.44C95.71 156.21 95.96 155.95 96.11 155.65C96.22 155.49 96.3 155.28 96.34 155.02C96.38 154.76 96.4 154.26 96.4 153.51C96.4 152.76 96.38 152.25 96.34 151.99C96.3 151.73 96.22 151.53 96.11 151.37ZM95.34 154.8C95.29 155.03 95.2 155.21 95.08 155.35C94.98 155.48 94.85 155.59 94.69 155.68C94.52 155.78 94.31 155.83 94.08 155.83C93.85 155.83 93.65 155.78 93.48 155.68C93.31 155.6 93.17 155.49 93.07 155.35C92.94 155.21 92.86 155.03 92.82 154.8C92.77 154.57 92.75 154.14 92.75 153.5C92.75 152.86 92.77 152.43 92.82 152.19C92.86 151.97 92.95 151.79 93.07 151.65C93.17 151.52 93.31 151.4 93.48 151.32C93.65 151.23 93.85 151.19 94.08 151.18C94.31 151.18 94.52 151.23 94.69 151.32C94.85 151.41 94.98 151.52 95.08 151.65C95.21 151.79 95.3 151.97 95.34 152.19C95.38 152.42 95.41 152.86 95.41 153.5C95.41 154.14 95.39 154.57 95.34 154.8Z" fill="url(#paint23_linear_13_732)"/>
<path d="M103.02 156.76H107.169V155.83H104.01V153.92H106.71V153.04H104.01V151.19H107.169V150.26H103.02V156.76Z" fill="url(#paint24_linear_13_732)"/>
<path d="M115.99 153.05C115.68 153.01 115.44 152.98 115.26 152.95C114.94 152.89 114.71 152.78 114.56 152.63C114.41 152.48 114.34 152.31 114.34 152.12C114.34 151.81 114.45 151.57 114.67 151.42C114.87 151.27 115.12 151.19 115.43 151.19C116.02 151.2 116.55 151.37 117.04 151.69L117.59 150.88C116.99 150.45 116.29 150.22 115.48 150.21C114.81 150.21 114.29 150.39 113.92 150.74C113.54 151.09 113.35 151.55 113.35 152.11C113.35 152.58 113.5 152.98 113.8 153.31C114.09 153.63 114.52 153.84 115.08 153.93C115.39 153.97 115.68 154.01 115.94 154.05C116.51 154.15 116.79 154.44 116.79 154.92C116.78 155.51 116.35 155.81 115.51 155.82C114.8 155.82 114.18 155.6 113.66 155.17L113.01 155.91C113.7 156.5 114.53 156.8 115.49 156.8C116.98 156.78 117.74 156.15 117.77 154.91C117.77 154.45 117.63 154.05 117.34 153.7C117.05 153.35 116.6 153.13 115.99 153.04V153.05Z" fill="url(#paint25_linear_13_732)"/>
<path d="M135.51 153.04H132.94V150.26H131.96V156.76H132.94V153.92H135.51V156.76H136.5V150.26H135.51V153.04Z" fill="url(#paint26_linear_13_732)"/>
<path d="M143.35 156.76H147.5V155.83H144.34V153.92H147.04V153.04H144.34V151.19H147.5V150.26H143.35V156.76Z" fill="url(#paint27_linear_13_732)"/>
<path d="M158.409 152.07C158.389 151.47 158.179 151.01 157.759 150.68C157.419 150.39 156.979 150.25 156.439 150.25H153.899V156.75H154.889V153.97H156.149L157.489 156.75H158.659L157.149 153.87C157.979 153.55 158.389 152.95 158.409 152.07ZM154.889 153.1V151.13H156.429C156.739 151.13 156.989 151.2 157.149 151.33C157.359 151.48 157.469 151.73 157.479 152.07C157.479 152.35 157.389 152.59 157.209 152.78C157.029 152.99 156.749 153.09 156.379 153.1H154.889Z" fill="url(#paint28_linear_13_732)"/>
<path d="M164.949 156.76H169.099V155.83H165.929V153.92H168.639V153.04H165.929V151.19H169.099V150.26H164.949V156.76Z" fill="url(#paint29_linear_13_732)"/>
<defs>
<linearGradient id="paint0_linear_13_732" x1="6.17969" y1="77.8" x2="51.1697" y2="77.8" gradientUnits="userSpaceOnUse">
<stop stop-color="white"/>
<stop offset="0.33" stop-color="white"/>
<stop offset="0.52" stop-color="white"/>
<stop offset="0.73" stop-color="white"/>
<stop offset="1" stop-color="white"/>
</linearGradient>
<linearGradient id="paint1_linear_13_732" x1="39.1094" y1="77.8" x2="84.0894" y2="77.8" gradientUnits="userSpaceOnUse">
<stop stop-color="white"/>
<stop offset="0.33" stop-color="white"/>
<stop offset="0.52" stop-color="white"/>
<stop offset="0.73" stop-color="white"/>
<stop offset="1" stop-color="white"/>
</linearGradient>
<linearGradient id="paint2_linear_13_732" x1="55.5693" y1="77.8" x2="100.549" y2="77.8" gradientUnits="userSpaceOnUse">
<stop stop-color="white"/>
<stop offset="0.33" stop-color="white"/>
<stop offset="0.52" stop-color="white"/>
<stop offset="0.73" stop-color="white"/>
<stop offset="1" stop-color="white"/>
</linearGradient>
<linearGradient id="paint3_linear_13_732" x1="75.8994" y1="30.07" x2="114.169" y2="30.07" gradientUnits="userSpaceOnUse">
<stop stop-color="white"/>
<stop offset="0.33" stop-color="white"/>
<stop offset="0.52" stop-color="white"/>
<stop offset="0.73" stop-color="white"/>
<stop offset="1" stop-color="white"/>
</linearGradient>
<linearGradient id="paint4_linear_13_732" x1="22.6494" y1="77.8" x2="67.6294" y2="77.8" gradientUnits="userSpaceOnUse">
<stop stop-color="white"/>
<stop offset="0.33" stop-color="white"/>
<stop offset="0.52" stop-color="white"/>
<stop offset="0.73" stop-color="white"/>
<stop offset="1" stop-color="white"/>
</linearGradient>
<linearGradient id="paint5_linear_13_732" x1="84.1299" y1="37.2" x2="130.63" y2="37.2" gradientUnits="userSpaceOnUse">
<stop stop-color="white"/>
<stop offset="0.33" stop-color="white"/>
<stop offset="0.52" stop-color="white"/>
<stop offset="0.73" stop-color="white"/>
<stop offset="1" stop-color="white"/>
</linearGradient>
<linearGradient id="paint6_linear_13_732" x1="92.3594" y1="44.33" x2="147.089" y2="44.33" gradientUnits="userSpaceOnUse">
<stop stop-color="white"/>
<stop offset="0.33" stop-color="white"/>
<stop offset="0.52" stop-color="white"/>
<stop offset="0.73" stop-color="white"/>
<stop offset="1" stop-color="white"/>
</linearGradient>
<linearGradient id="paint7_linear_13_732" x1="100.59" y1="51.46" x2="163.55" y2="51.46" gradientUnits="userSpaceOnUse">
<stop stop-color="white"/>
<stop offset="0.33" stop-color="white"/>
<stop offset="0.52" stop-color="white"/>
<stop offset="0.73" stop-color="white"/>
<stop offset="1" stop-color="white"/>
</linearGradient>
<linearGradient id="paint8_linear_13_732" x1="0.659922" y1="136.02" x2="13.6099" y2="136.02" gradientUnits="userSpaceOnUse">
<stop stop-color="white"/>
<stop offset="0.33" stop-color="white"/>
<stop offset="0.52" stop-color="white"/>
<stop offset="0.73" stop-color="white"/>
<stop offset="1" stop-color="white"/>
</linearGradient>
<linearGradient id="paint9_linear_13_732" x1="26.1592" y1="136.02" x2="41.4992" y2="136.02" gradientUnits="userSpaceOnUse">
<stop stop-color="white"/>
<stop offset="0.33" stop-color="white"/>
<stop offset="0.52" stop-color="white"/>
<stop offset="0.73" stop-color="white"/>
<stop offset="1" stop-color="white"/>
</linearGradient>
<linearGradient id="paint10_linear_13_732" x1="55.0498" y1="136.02" x2="70.6098" y2="136.02" gradientUnits="userSpaceOnUse">
<stop stop-color="white"/>
<stop offset="0.33" stop-color="white"/>
<stop offset="0.52" stop-color="white"/>
<stop offset="0.73" stop-color="white"/>
<stop offset="1" stop-color="white"/>
</linearGradient>
<linearGradient id="paint11_linear_13_732" x1="84.1699" y1="136.02" x2="93.0499" y2="136.02" gradientUnits="userSpaceOnUse">
<stop stop-color="white"/>
<stop offset="0.33" stop-color="white"/>
<stop offset="0.52" stop-color="white"/>
<stop offset="0.73" stop-color="white"/>
<stop offset="1" stop-color="white"/>
</linearGradient>
<linearGradient id="paint12_linear_13_732" x1="104.59" y1="136.02" x2="118.93" y2="136.02" gradientUnits="userSpaceOnUse">
<stop stop-color="white"/>
<stop offset="0.33" stop-color="white"/>
<stop offset="0.52" stop-color="white"/>
<stop offset="0.73" stop-color="white"/>
<stop offset="1" stop-color="white"/>
</linearGradient>
<linearGradient id="paint13_linear_13_732" x1="132.08" y1="136.02" x2="144.85" y2="136.02" gradientUnits="userSpaceOnUse">
<stop stop-color="white"/>
<stop offset="0.33" stop-color="white"/>
<stop offset="0.52" stop-color="white"/>
<stop offset="0.73" stop-color="white"/>
<stop offset="1" stop-color="white"/>
</linearGradient>
<linearGradient id="paint14_linear_13_732" x1="158" y1="136.02" x2="169.07" y2="136.02" gradientUnits="userSpaceOnUse">
<stop stop-color="white"/>
<stop offset="0.33" stop-color="white"/>
<stop offset="0.52" stop-color="white"/>
<stop offset="0.73" stop-color="white"/>
<stop offset="1" stop-color="white"/>
</linearGradient>
<linearGradient id="paint15_linear_13_732" x1="0.639648" y1="153.51" x2="5.17963" y2="153.51" gradientUnits="userSpaceOnUse">
<stop stop-color="white"/>
<stop offset="0.33" stop-color="white"/>
<stop offset="0.52" stop-color="white"/>
<stop offset="0.73" stop-color="white"/>
<stop offset="1" stop-color="white"/>
</linearGradient>
<linearGradient id="paint16_linear_13_732" x1="10" y1="153.51" x2="15.55" y2="153.51" gradientUnits="userSpaceOnUse">
<stop stop-color="white"/>
<stop offset="0.33" stop-color="white"/>
<stop offset="0.52" stop-color="white"/>
<stop offset="0.73" stop-color="white"/>
<stop offset="1" stop-color="white"/>
</linearGradient>
<linearGradient id="paint17_linear_13_732" x1="21.3301" y1="153.51" x2="25.9701" y2="153.51" gradientUnits="userSpaceOnUse">
<stop stop-color="white"/>
<stop offset="0.33" stop-color="white"/>
<stop offset="0.52" stop-color="white"/>
<stop offset="0.73" stop-color="white"/>
<stop offset="1" stop-color="white"/>
</linearGradient>
<linearGradient id="paint18_linear_13_732" x1="32.5996" y1="153.51" x2="36.7496" y2="153.51" gradientUnits="userSpaceOnUse">
<stop stop-color="white"/>
<stop offset="0.33" stop-color="white"/>
<stop offset="0.52" stop-color="white"/>
<stop offset="0.73" stop-color="white"/>
<stop offset="1" stop-color="white"/>
</linearGradient>
<linearGradient id="paint19_linear_13_732" x1="43.1592" y1="153.51" x2="44.1392" y2="153.51" gradientUnits="userSpaceOnUse">
<stop stop-color="white"/>
<stop offset="0.33" stop-color="white"/>
<stop offset="0.52" stop-color="white"/>
<stop offset="0.73" stop-color="white"/>
<stop offset="1" stop-color="white"/>
</linearGradient>
<linearGradient id="paint20_linear_13_732" x1="50.9893" y1="153.51" x2="55.8593" y2="153.51" gradientUnits="userSpaceOnUse">
<stop stop-color="white"/>
<stop offset="0.33" stop-color="white"/>
<stop offset="0.52" stop-color="white"/>
<stop offset="0.73" stop-color="white"/>
<stop offset="1" stop-color="white"/>
</linearGradient>
<linearGradient id="paint21_linear_13_732" x1="62.71" y1="153.51" x2="66.8599" y2="153.51" gradientUnits="userSpaceOnUse">
<stop stop-color="white"/>
<stop offset="0.33" stop-color="white"/>
<stop offset="0.52" stop-color="white"/>
<stop offset="0.73" stop-color="white"/>
<stop offset="1" stop-color="white"/>
</linearGradient>
<linearGradient id="paint22_linear_13_732" x1="80.7092" y1="153.51" x2="85.3492" y2="153.51" gradientUnits="userSpaceOnUse">
<stop stop-color="white"/>
<stop offset="0.33" stop-color="white"/>
<stop offset="0.52" stop-color="white"/>
<stop offset="0.73" stop-color="white"/>
<stop offset="1" stop-color="white"/>
</linearGradient>
<linearGradient id="paint23_linear_13_732" x1="91.75" y1="153.51" x2="96.39" y2="153.51" gradientUnits="userSpaceOnUse">
<stop stop-color="white"/>
<stop offset="0.33" stop-color="white"/>
<stop offset="0.52" stop-color="white"/>
<stop offset="0.73" stop-color="white"/>
<stop offset="1" stop-color="white"/>
</linearGradient>
<linearGradient id="paint24_linear_13_732" x1="103.02" y1="153.51" x2="107.169" y2="153.51" gradientUnits="userSpaceOnUse">
<stop stop-color="white"/>
<stop offset="0.33" stop-color="white"/>
<stop offset="0.52" stop-color="white"/>
<stop offset="0.73" stop-color="white"/>
<stop offset="1" stop-color="white"/>
</linearGradient>
<linearGradient id="paint25_linear_13_732" x1="113.01" y1="153.51" x2="117.78" y2="153.51" gradientUnits="userSpaceOnUse">
<stop stop-color="white"/>
<stop offset="0.33" stop-color="white"/>
<stop offset="0.52" stop-color="white"/>
<stop offset="0.73" stop-color="white"/>
<stop offset="1" stop-color="white"/>
</linearGradient>
<linearGradient id="paint26_linear_13_732" x1="131.96" y1="153.51" x2="136.5" y2="153.51" gradientUnits="userSpaceOnUse">
<stop stop-color="white"/>
<stop offset="0.33" stop-color="white"/>
<stop offset="0.52" stop-color="white"/>
<stop offset="0.73" stop-color="white"/>
<stop offset="1" stop-color="white"/>
</linearGradient>
<linearGradient id="paint27_linear_13_732" x1="143.35" y1="153.51" x2="147.5" y2="153.51" gradientUnits="userSpaceOnUse">
<stop stop-color="white"/>
<stop offset="0.33" stop-color="white"/>
<stop offset="0.52" stop-color="white"/>
<stop offset="0.73" stop-color="white"/>
<stop offset="1" stop-color="white"/>
</linearGradient>
<linearGradient id="paint28_linear_13_732" x1="153.899" y1="153.51" x2="158.659" y2="153.51" gradientUnits="userSpaceOnUse">
<stop stop-color="white"/>
<stop offset="0.33" stop-color="white"/>
<stop offset="0.52" stop-color="white"/>
<stop offset="0.73" stop-color="white"/>
<stop offset="1" stop-color="white"/>
</linearGradient>
<linearGradient id="paint29_linear_13_732" x1="164.949" y1="153.51" x2="169.099" y2="153.51" gradientUnits="userSpaceOnUse">
<stop stop-color="white"/>
<stop offset="0.33" stop-color="white"/>
<stop offset="0.52" stop-color="white"/>
<stop offset="0.73" stop-color="white"/>
<stop offset="1" stop-color="white"/>
</linearGradient>
</defs>
</svg>
