<svg width="152" height="158" viewBox="0 0 152 158" fill="none" xmlns="http://www.w3.org/2000/svg">
<path d="M6.89953 146.04C8.72953 146.04 10.3995 145.31 11.6395 144.13L9.69953 142.19C8.96953 142.86 7.97953 143.28 6.90953 143.28C4.61953 143.28 2.76953 141.45 2.76953 139.16C2.76953 136.87 4.61953 135.04 6.90953 135.04C7.97953 135.04 8.97953 135.46 9.69953 136.15L11.6395 134.19C10.4095 133.01 8.73953 132.28 6.89953 132.28C3.10953 132.28 0.0195312 135.36 0.0195312 139.16C0.0195312 142.96 3.09953 146.04 6.89953 146.04Z" fill="url(#paint0_linear_13_623)"/>
<path d="M36.6399 139.17C36.6399 135.38 33.5599 132.29 29.7599 132.29C25.9599 132.29 22.8799 135.37 22.8799 139.17C22.8799 142.97 25.9599 146.05 29.7599 146.05C33.5599 146.05 36.6399 142.97 36.6399 139.17ZM29.7599 143.31C27.4699 143.31 25.6199 141.46 25.6199 139.17C25.6199 136.88 27.4699 135.05 29.7599 135.05C32.0499 135.05 33.8799 136.9 33.8799 139.17C33.8799 141.44 32.0299 143.31 29.7599 143.31Z" fill="url(#paint1_linear_13_623)"/>
<path d="M62.7498 146.04V132.29H59.7898L55.7798 142.34L51.7498 132.29H48.7998V146.04H51.5398V139.17L54.2898 146.04H57.2498L60.0098 139.17V146.04H62.7498Z" fill="url(#paint2_linear_13_623)"/>
<path d="M77.6502 140.55H78.7802C81.0502 140.55 82.8801 138.7 82.8801 136.43C82.8801 134.16 81.0502 132.29 78.7602 132.29H74.9102V146.04H77.6502V140.54V140.55ZM77.6502 135.05H78.7602C79.5202 135.05 80.1402 135.67 80.1402 136.43C80.1402 137.19 79.5202 137.79 78.7602 137.79H77.6502V135.05Z" fill="url(#paint3_linear_13_623)"/>
<path d="M101.11 132.29H98.1897L93.2197 146.04H96.1397L97.5397 142.19H101.77L103.17 146.04H106.09L101.12 132.29H101.11ZM98.5297 139.44L99.6397 136.34L100.77 139.44H98.5397H98.5297Z" fill="url(#paint4_linear_13_623)"/>
<path d="M129.32 146.04V132.29H126.58V141.47L121.08 132.29H117.87V146.04H120.61V136.88L126.13 146.04H129.32Z" fill="url(#paint5_linear_13_623)"/>
<path d="M144.18 132.29H141.12L144.71 139.49V146.04H147.45V139.49L151.04 132.29H147.97L146.09 136.1L144.18 132.29Z" fill="url(#paint6_linear_13_623)"/>
<path d="M1.6 157.76H2.48V152.72H4.08V151.93H0V152.72H1.6V157.76Z" fill="url(#paint7_linear_13_623)"/>
<path d="M10.5204 151.93L8.40039 157.76H9.34039L9.79039 156.46H12.0004L12.4504 157.76H13.3804L11.2604 151.93H10.5204ZM10.0404 155.67L10.8804 153.12H10.9004L11.7404 155.67H10.0404Z" fill="url(#paint8_linear_13_623)"/>
<path d="M19.7396 153.19C19.8296 153.07 19.9596 152.97 20.1096 152.89C20.2596 152.81 20.4396 152.77 20.6496 152.77C20.9296 152.77 21.1696 152.86 21.3696 153.01C21.5596 153.18 21.6896 153.37 21.7596 153.61H22.6996C22.6096 153.12 22.3796 152.71 22.0296 152.38C21.6796 152.05 21.2196 151.89 20.6496 151.88C20.1896 151.88 19.8096 151.99 19.4996 152.21C19.1896 152.42 18.9596 152.66 18.8196 152.93C18.7296 153.07 18.6696 153.26 18.6196 153.49C18.5796 153.72 18.5596 154.17 18.5596 154.85C18.5596 155.53 18.5796 155.97 18.6196 156.2C18.6396 156.33 18.6696 156.43 18.6996 156.51C18.7296 156.59 18.7696 156.67 18.8196 156.76C18.9596 157.03 19.1896 157.27 19.4996 157.47C19.8096 157.68 20.1896 157.8 20.6496 157.81C21.2396 157.8 21.7396 157.6 22.1296 157.21C22.5196 156.82 22.7196 156.33 22.7296 155.74V154.55H20.6596V155.39H21.8496V155.69C21.8496 156.06 21.7296 156.35 21.5096 156.57C21.2896 156.8 20.9996 156.92 20.6596 156.92C20.4496 156.92 20.2696 156.88 20.1196 156.79C19.9696 156.72 19.8496 156.62 19.7496 156.5C19.6396 156.37 19.5596 156.21 19.5196 156.01C19.4796 155.81 19.4596 155.42 19.4596 154.85C19.4596 154.28 19.4796 153.89 19.5196 153.68C19.5596 153.48 19.6296 153.32 19.7496 153.2L19.7396 153.19Z" fill="url(#paint9_linear_13_623)"/>
<path d="M28.6699 151.93V157.76H32.3899V156.93H29.5499V151.93H28.6699Z" fill="url(#paint10_linear_13_623)"/>
<path d="M39.0099 151.93H38.1299V157.76H39.0099V151.93Z" fill="url(#paint11_linear_13_623)"/>
<path d="M48.6404 156.08H48.6204L45.9804 151.93H45.1504V157.76H46.0404V153.62H46.0504L48.6904 157.76H49.5204V151.93H48.6404V156.08Z" fill="url(#paint12_linear_13_623)"/>
<path d="M59.3902 152.77V151.93H55.6602V157.76H59.3902V156.93H56.5502V155.22H58.9702V154.43H56.5502V152.77H59.3902Z" fill="url(#paint13_linear_13_623)"/>
<path d="M72.7398 152.21C72.4298 152.42 72.1998 152.66 72.0598 152.93C71.9698 153.07 71.9098 153.26 71.8598 153.49C71.8198 153.72 71.7998 154.17 71.7998 154.85C71.7998 155.53 71.8198 155.97 71.8598 156.2C71.8798 156.33 71.9098 156.43 71.9398 156.51C71.9698 156.59 72.0098 156.67 72.0598 156.76C72.1998 157.03 72.4298 157.27 72.7398 157.47C73.0498 157.68 73.4298 157.8 73.8898 157.81C74.4798 157.8 74.9798 157.6 75.3698 157.21C75.7598 156.82 75.9598 156.33 75.9698 155.74V154.55H73.8998V155.39H75.0898V155.69C75.0898 156.06 74.9698 156.35 74.7498 156.57C74.5298 156.8 74.2398 156.92 73.8998 156.92C73.6898 156.92 73.5098 156.88 73.3598 156.79C73.2098 156.72 73.0898 156.62 72.9898 156.5C72.8798 156.37 72.7998 156.21 72.7598 156.01C72.7198 155.81 72.6998 155.42 72.6998 154.85C72.6998 154.28 72.7198 153.89 72.7598 153.68C72.7998 153.48 72.8698 153.32 72.9898 153.2C73.0798 153.08 73.2098 152.98 73.3598 152.9C73.5098 152.82 73.6898 152.78 73.8998 152.78C74.1798 152.78 74.4198 152.87 74.6198 153.02C74.8098 153.19 74.9398 153.38 75.0098 153.62H75.9498C75.8598 153.13 75.6298 152.72 75.2798 152.39C74.9298 152.06 74.4698 151.9 73.8998 151.89C73.4398 151.89 73.0598 152 72.7498 152.22L72.7398 152.21Z" fill="url(#paint14_linear_13_623)"/>
<path d="M85.6102 156.76C85.7102 156.62 85.7802 156.43 85.8102 156.2C85.8402 155.97 85.8602 155.52 85.8602 154.85C85.8602 154.18 85.8402 153.72 85.8102 153.49C85.7702 153.26 85.7002 153.08 85.6102 152.93C85.4702 152.66 85.2502 152.42 84.9502 152.21C84.6402 152 84.2502 151.89 83.7902 151.88C83.3302 151.88 82.9502 151.99 82.6402 152.21C82.3302 152.42 82.1002 152.66 81.9602 152.93C81.8702 153.07 81.8102 153.26 81.7602 153.49C81.7202 153.72 81.7002 154.17 81.7002 154.85C81.7002 155.53 81.7202 155.97 81.7602 156.2C81.7802 156.33 81.8102 156.43 81.8402 156.51C81.8702 156.59 81.9102 156.67 81.9602 156.76C82.1002 157.03 82.3302 157.27 82.6402 157.47C82.9502 157.68 83.3302 157.8 83.7902 157.81C84.2502 157.8 84.6402 157.69 84.9502 157.47C85.2602 157.27 85.4802 157.03 85.6102 156.76ZM84.6902 156.5C84.6002 156.62 84.4802 156.72 84.3402 156.79C84.1902 156.88 84.0002 156.92 83.7902 156.92C83.5802 156.92 83.4002 156.88 83.2502 156.79C83.1002 156.72 82.9802 156.62 82.8802 156.5C82.7702 156.37 82.6902 156.21 82.6502 156.01C82.6102 155.81 82.5902 155.42 82.5902 154.85C82.5902 154.28 82.6102 153.89 82.6502 153.68C82.6902 153.48 82.7602 153.32 82.8802 153.2C82.9702 153.08 83.1002 152.98 83.2502 152.9C83.4002 152.82 83.5802 152.78 83.7902 152.78C84.0002 152.78 84.1802 152.83 84.3402 152.9C84.4902 152.98 84.6002 153.08 84.6902 153.2C84.8002 153.33 84.8802 153.49 84.9302 153.68C84.9702 153.89 84.9902 154.28 84.9902 154.85C84.9902 155.42 84.9702 155.81 84.9302 156.01C84.8902 156.21 84.8102 156.38 84.6902 156.5Z" fill="url(#paint15_linear_13_623)"/>
<path d="M95.5296 152.77V151.93H91.8096V157.76H95.5296V156.93H92.6896V155.22H95.1196V154.43H92.6896V152.77H95.5296Z" fill="url(#paint16_linear_13_623)"/>
<path d="M103 156.93C102.36 156.93 101.81 156.73 101.34 156.35L100.76 157.01C101.38 157.54 102.12 157.81 102.99 157.81C104.33 157.79 105.01 157.23 105.04 156.12C105.04 155.71 104.91 155.34 104.65 155.03C104.39 154.71 103.99 154.52 103.44 154.44C103.16 154.41 102.94 154.37 102.78 154.35C102.49 154.3 102.28 154.2 102.15 154.06C102.02 153.92 101.95 153.77 101.95 153.6C101.95 153.32 102.05 153.11 102.24 152.97C102.42 152.83 102.65 152.77 102.92 152.77C103.44 152.78 103.93 152.93 104.36 153.22L104.85 152.49C104.31 152.1 103.68 151.9 102.96 151.89C102.36 151.89 101.89 152.05 101.56 152.36C101.22 152.67 101.05 153.08 101.05 153.59C101.05 154.01 101.18 154.37 101.45 154.67C101.71 154.96 102.09 155.14 102.59 155.23C102.87 155.27 103.13 155.31 103.36 155.34C103.87 155.43 104.12 155.69 104.12 156.12C104.11 156.65 103.73 156.92 102.97 156.93H103Z" fill="url(#paint17_linear_13_623)"/>
<path d="M121.83 157.76V151.93H120.95V154.43H118.64V151.93H117.76V157.76H118.64V155.22H120.95V157.76H121.83Z" fill="url(#paint18_linear_13_623)"/>
<path d="M131.7 152.77V151.93H127.97V157.76H131.7V156.93H128.86V155.22H131.28V154.43H128.86V152.77H131.7Z" fill="url(#paint19_linear_13_623)"/>
<path d="M138.32 155.27H139.45L140.65 157.76H141.7L140.35 155.17C141.09 154.88 141.47 154.35 141.48 153.56C141.46 153.02 141.27 152.61 140.9 152.32C140.59 152.06 140.2 151.94 139.71 151.94H137.44V157.77H138.32V155.28V155.27ZM138.32 152.72H139.7C139.98 152.72 140.2 152.78 140.35 152.9C140.54 153.04 140.64 153.26 140.64 153.56C140.64 153.81 140.56 154.03 140.4 154.2C140.23 154.39 139.99 154.48 139.66 154.49H138.32V152.72Z" fill="url(#paint20_linear_13_623)"/>
<path d="M151.06 152.77V151.93H147.34V157.76H151.06V156.93H148.23V155.22H150.65V154.43H148.23V152.77H151.06Z" fill="url(#paint21_linear_13_623)"/>
<path d="M19.2001 48.16V48.21L19.1801 48.28C19.1601 48.38 19.1501 48.48 19.1401 48.57V48.59C19.1401 48.59 19.1401 48.63 19.1401 48.65C19.1401 48.71 19.1201 48.77 19.1201 48.83L19.1001 48.98V49.01L19.0901 49.06V49.09V49.11V49.12V49.17V49.21V49.24C19.0701 49.43 19.0401 49.62 19.0201 49.81C19.0001 49.98 18.9801 50.15 18.9601 50.32C18.9601 50.39 18.9501 50.45 18.9401 50.51V50.52C18.9201 50.73 18.8901 50.94 18.8701 51.14C18.8501 51.29 18.8401 51.45 18.8301 51.61V51.63L18.8101 51.78C18.8101 51.84 18.8001 51.9 18.7901 51.96C18.7901 52.02 18.7801 52.09 18.7701 52.15C18.7701 52.18 18.7701 52.22 18.7701 52.25C18.7701 52.3 18.7701 52.35 18.7601 52.4C18.7601 52.46 18.7601 52.52 18.7501 52.59C18.7501 52.62 18.7501 52.65 18.7501 52.68C18.7301 52.89 18.7201 53.11 18.7001 53.37C18.7001 53.49 18.6901 53.6 18.6801 53.7C18.6801 53.81 18.6701 53.93 18.6601 54.04V54.06V54.08C18.6601 54.08 18.6601 54.11 18.6601 54.13C18.6601 54.16 18.6601 54.18 18.6601 54.21V54.24V54.28C18.6601 54.41 18.6501 54.53 18.6401 54.66C18.6401 54.71 18.6401 54.77 18.6401 54.82C18.6401 55.05 18.6201 55.27 18.6201 55.49C18.6201 55.52 18.6201 55.56 18.6201 55.6V55.68C18.6201 55.86 18.6201 56.04 18.6201 56.23V56.33V56.38V56.57C18.6201 56.63 18.6201 56.68 18.6201 56.74C18.6201 56.78 18.6201 56.82 18.6201 56.86C18.6201 56.9 18.6201 56.94 18.6201 56.98C18.6201 57.03 18.6201 57.09 18.6201 57.14V57.47C18.7801 68.31 23.1301 78.47 30.8501 86.09C38.5801 93.72 48.8201 97.92 59.6801 97.92C61.4101 97.92 63.1201 97.81 64.8101 97.6C65.5801 97.5 66.3401 97.4 67.1001 97.26C61.4801 93.86 56.6201 89.31 52.8001 83.84C51.4101 81.86 50.1901 79.78 49.1401 77.64C48.9001 77.16 48.6801 76.67 48.4601 76.18C48.4401 76.13 48.4101 76.07 48.3901 76.02C45.7201 70.03 44.3401 63.54 44.3401 56.86C44.3401 47.15 47.2701 37.82 52.8101 29.88C54.0801 28.06 55.4701 26.34 56.9701 24.73C61.8301 19.49 67.7901 15.43 74.5101 12.83C76.5501 12.04 78.6201 11.4 80.7401 10.9C84.2601 10.07 87.8801 9.66 91.5501 9.66C100.13 9.66 108.37 11.94 115.57 16.21C115.57 16.21 115.57 16.21 115.56 16.2C115.5 16.14 115.42 16.07 115.36 16C115.27 15.91 115.18 15.83 115.09 15.74C115.06 15.71 115.03 15.69 115.01 15.66L114.99 15.64L114.98 15.62C114.9 15.55 114.81 15.47 114.73 15.39C114.64 15.31 114.56 15.23 114.47 15.14V15.12L114.45 15.1C114.45 15.1 114.42 15.07 114.4 15.06C114.3 14.97 114.2 14.87 114.1 14.78L114.08 14.76L113.95 14.64C113.95 14.64 113.91 14.6 113.88 14.58C113.73 14.45 113.59 14.32 113.45 14.19C113.28 14.04 113.12 13.9 112.97 13.77C112.92 13.73 112.87 13.68 112.81 13.64C112.7 13.55 112.59 13.45 112.48 13.36L112.26 13.18L112.14 13.08L112.05 13L112 12.96C111.87 12.85 111.74 12.75 111.61 12.64L111.59 12.62L111.58 12.6H111.56C111.46 12.51 111.37 12.43 111.27 12.36C110.96 12.11 110.64 11.86 110.32 11.62V11.61C110.23 11.54 110.15 11.48 110.06 11.41L109.95 11.33L109.89 11.28C109.89 11.28 109.86 11.26 109.85 11.25C109.85 11.25 109.85 11.25 109.84 11.24L109.83 11.23L109.81 11.21L109.63 11.08L109.56 11.03L109.31 10.85C109.31 10.85 109.26 10.81 109.23 10.79C109.18 10.76 109.14 10.72 109.09 10.69L108.99 10.62C108.89 10.55 108.8 10.48 108.7 10.41C108.68 10.39 108.65 10.38 108.63 10.36L108.6 10.34L108.58 10.32C108.34 10.15 108.11 9.99 107.87 9.82C107.76 9.74 107.66 9.67 107.55 9.6C107.52 9.58 107.5 9.56 107.47 9.55C107.31 9.45 107.15 9.34 106.99 9.23C106.99 9.23 106.97 9.22 106.96 9.21H106.95H106.93C106.93 9.21 106.86 9.16 106.83 9.13C106.71 9.05 106.6 8.98 106.48 8.91H106.46V8.9H106.44C106.27 8.77 106.09 8.67 105.92 8.56H105.9V8.55L105.88 8.53C105.7 8.42 105.52 8.3 105.34 8.2L105.05 8.03C105.05 8.03 104.96 7.97 104.92 7.95C104.87 7.92 104.81 7.88 104.75 7.85H104.74C104.71 7.83 104.67 7.81 104.64 7.79C104.51 7.71 104.38 7.64 104.25 7.56L104.15 7.5C104.15 7.5 104.06 7.45 104.02 7.42C103.9 7.35 103.78 7.28 103.66 7.21C103.65 7.21 103.64 7.2 103.62 7.19C102.81 6.74 101.99 6.3 101.16 5.89C101.14 5.89 101.12 5.87 101.1 5.86H101.08C100.9 5.76 100.72 5.67 100.53 5.58L100.04 5.35C100.04 5.35 100.01 5.33 100 5.33C100 5.33 99.9801 5.33 99.9701 5.32H99.9601C99.3801 5.04 98.8501 4.81 98.3401 4.59H98.3301L98.3201 4.58H98.3101H98.3001C98.1801 4.52 98.0501 4.47 97.9301 4.42L97.8801 4.4L97.8401 4.38L97.6201 4.29C97.5401 4.26 97.4601 4.23 97.3801 4.19C97.3401 4.17 97.3101 4.16 97.2701 4.15C96.7201 3.93 96.2701 3.75 95.8601 3.6L95.6101 3.51H95.5801L95.3201 3.4C94.6201 3.15 93.9001 2.9 93.1701 2.67C93.1601 2.67 93.1501 2.67 93.1301 2.66C92.9901 2.62 92.8501 2.57 92.7201 2.53C92.5801 2.49 92.4401 2.44 92.2901 2.4C92.2101 2.37 92.1201 2.35 92.0401 2.32C91.7201 2.23 91.4201 2.14 91.1401 2.06H91.1301H91.1201C91.0801 2.05 91.0401 2.04 91.0001 2.03C90.9401 2.01 90.8701 2 90.8101 1.98H90.7701L90.7101 1.95C90.1101 1.79 89.5001 1.65 88.8901 1.5C88.5301 1.42 88.1701 1.34 87.8101 1.26C87.2001 1.13 86.5901 1 85.9701 0.89C85.7401 0.85 85.5101 0.81 85.2801 0.77H85.2701C85.0401 0.73 84.8101 0.69 84.5801 0.66C84.4701 0.64 84.3701 0.63 84.2601 0.61C84.1301 0.59 83.9901 0.57 83.8601 0.55C83.2001 0.46 82.5401 0.38 81.8801 0.31C80.6001 0.18 79.3201 0.09 78.0301 0.04C77.3101 0.01 76.6001 0 75.8801 0C74.6701 0 73.4701 0.04 72.2601 0.12C72.1301 0.12 72.0101 0.13 71.8801 0.14C70.5501 0.23 69.2201 0.37 67.9101 0.55C67.6701 0.58 67.4401 0.62 67.2001 0.65C67.2001 0.65 67.1901 0.65 67.1801 0.65L19.2001 48.14V48.16Z" fill="url(#paint22_linear_13_623)"/>
<path d="M131.88 65.48V65.44L131.89 65.39C131.9 65.31 131.91 65.23 131.92 65.15V65.13V65.1V65.07C131.94 64.97 131.96 64.86 131.97 64.75V64.68L131.99 64.61C131.99 64.58 131.99 64.54 132.01 64.51L132.05 64.15L132.08 63.9C132.11 63.66 132.14 63.44 132.16 63.22V63.19C132.19 62.98 132.21 62.78 132.23 62.58C132.25 62.41 132.26 62.25 132.28 62.1L132.3 61.94C132.31 61.83 132.32 61.72 132.33 61.61V61.57V61.53C132.35 61.39 132.35 61.24 132.36 61.1V61.04C132.38 60.83 132.4 60.61 132.41 60.36V60.34C132.43 60.12 132.44 59.9 132.45 59.68V59.62V59.53V59.44C132.47 59.26 132.47 59.08 132.48 58.89C132.48 58.64 132.5 58.41 132.5 58.17V58.14V58.03C132.5 57.86 132.5 57.69 132.5 57.52V57.3C132.5 57.15 132.5 57.01 132.5 56.86C132.5 56.71 132.5 56.55 132.5 56.4V56.24C132.34 45.4 128 35.24 120.28 27.62C112.55 19.99 102.31 15.79 91.4403 15.79C88.9303 15.79 86.4503 16.01 84.0203 16.46C89.6403 19.86 94.5103 24.41 98.3203 29.88C103.86 37.82 106.79 47.15 106.79 56.86C106.79 66.57 103.86 75.9 98.3203 83.84C92.9103 91.59 85.4103 97.49 76.6203 100.89C71.2003 102.99 65.4703 104.06 59.5903 104.06C51.0103 104.06 42.7703 101.78 35.5703 97.52H35.5803L35.6103 97.56L35.6403 97.59C35.6403 97.59 35.7103 97.66 35.7403 97.69L35.8503 97.8C35.9403 97.89 36.0303 97.98 36.1303 98.07L36.1503 98.09L36.1703 98.11C36.3203 98.26 36.5003 98.43 36.6803 98.59L36.7103 98.61L36.7303 98.63C36.8503 98.74 36.9603 98.85 37.0803 98.96L37.0903 98.98C37.3003 99.17 37.5003 99.36 37.7203 99.54H37.7303L37.7403 99.56C37.8803 99.68 38.0203 99.81 38.1603 99.93L38.1903 99.95L38.2803 100.03L38.6903 100.38L38.7703 100.45L38.7903 100.47C38.9003 100.56 39.0103 100.65 39.1203 100.74L39.1603 100.77L39.2003 100.81C39.3003 100.89 39.4003 100.98 39.5203 101.07L39.5603 101.1L39.6003 101.13C39.6903 101.2 39.7703 101.27 39.8503 101.34L39.8803 101.36L39.9003 101.38C40.2003 101.63 40.5203 101.87 40.8403 102.11C40.9103 102.17 40.9803 102.22 41.0503 102.27C41.1303 102.33 41.2103 102.39 41.2903 102.45C41.3403 102.48 41.3803 102.51 41.4203 102.55L41.5003 102.61C41.6303 102.71 41.7503 102.8 41.8803 102.9L42.0003 102.99C42.0603 103.04 42.1303 103.08 42.1903 103.13L42.2103 103.15L42.2403 103.17C42.3303 103.24 42.4303 103.31 42.5303 103.38L42.6303 103.45C42.8603 103.62 43.1003 103.78 43.3403 103.95H43.3603L43.3803 103.98C43.4803 104.05 43.5903 104.12 43.7003 104.19L43.7803 104.24L44.0403 104.41L44.3203 104.6C44.4603 104.69 44.6103 104.79 44.7603 104.88C44.9103 104.98 45.0603 105.07 45.2003 105.16H45.5603L46.2103 105.78C46.3103 105.84 46.4103 105.9 46.5103 105.96C46.7103 106.08 46.9103 106.19 47.1103 106.3H47.1303L47.1503 106.32C47.3103 106.41 47.4603 106.5 47.6203 106.59C48.4603 107.07 49.3103 107.52 50.1703 107.94C50.3603 108.03 50.5503 108.13 50.7303 108.22C50.7603 108.24 50.7903 108.25 50.8103 108.26C50.9903 108.34 51.1603 108.43 51.3403 108.51C51.8803 108.76 52.4303 109.01 52.9603 109.24H52.9703H52.9803C53.1103 109.3 53.2503 109.36 53.3803 109.41C53.4203 109.43 53.4603 109.44 53.5103 109.47C53.6903 109.54 53.8703 109.62 54.0503 109.69C54.4903 109.87 54.9603 110.05 55.4603 110.24H55.4803L55.5003 110.25C55.6503 110.31 55.8103 110.37 55.9603 110.42H55.9803L56.0003 110.43C56.7303 110.7 57.4503 110.94 58.1403 111.16H58.1603L58.1803 111.18C58.3203 111.23 58.4603 111.27 58.6003 111.32H58.6203H58.6403C58.8503 111.39 59.0603 111.45 59.2703 111.52L59.4503 111.57C59.7003 111.64 59.9603 111.71 60.2103 111.78C60.3503 111.82 60.4803 111.85 60.6003 111.89H60.6303C62.2003 112.32 63.8003 112.68 65.3703 112.95H65.3903H65.4103C65.6003 112.98 65.8103 113.02 66.0603 113.06H66.0903C66.3403 113.11 66.5603 113.14 66.7503 113.17H66.7803H66.8103C67.0303 113.21 67.2503 113.24 67.4803 113.27H67.5003C70.1303 113.64 72.8103 113.83 75.4703 113.83C78.1303 113.83 80.8203 113.64 83.4503 113.28H83.5103C83.7203 113.24 83.9303 113.21 84.1403 113.18H84.1703H84.1903L131.81 65.56C131.81 65.56 131.81 65.5 131.82 65.48H131.88Z" fill="url(#paint23_linear_13_623)"/>
<defs>
<linearGradient id="paint0_linear_13_623" x1="0.0195312" y1="139.17" x2="11.6395" y2="139.17" gradientUnits="userSpaceOnUse">
<stop stop-color="white"/>
<stop offset="0.33" stop-color="white"/>
<stop offset="0.52" stop-color="white"/>
<stop offset="0.73" stop-color="white"/>
<stop offset="1" stop-color="white"/>
</linearGradient>
<linearGradient id="paint1_linear_13_623" x1="22.8899" y1="139.17" x2="36.6399" y2="139.17" gradientUnits="userSpaceOnUse">
<stop stop-color="white"/>
<stop offset="0.33" stop-color="white"/>
<stop offset="0.52" stop-color="white"/>
<stop offset="0.73" stop-color="white"/>
<stop offset="1" stop-color="white"/>
</linearGradient>
<linearGradient id="paint2_linear_13_623" x1="48.7998" y1="139.17" x2="62.7498" y2="139.17" gradientUnits="userSpaceOnUse">
<stop stop-color="white"/>
<stop offset="0.33" stop-color="white"/>
<stop offset="0.52" stop-color="white"/>
<stop offset="0.73" stop-color="white"/>
<stop offset="1" stop-color="white"/>
</linearGradient>
<linearGradient id="paint3_linear_13_623" x1="74.9102" y1="139.17" x2="82.8702" y2="139.17" gradientUnits="userSpaceOnUse">
<stop stop-color="white"/>
<stop offset="0.33" stop-color="white"/>
<stop offset="0.52" stop-color="white"/>
<stop offset="0.73" stop-color="white"/>
<stop offset="1" stop-color="white"/>
</linearGradient>
<linearGradient id="paint4_linear_13_623" x1="93.2097" y1="139.17" x2="106.08" y2="139.17" gradientUnits="userSpaceOnUse">
<stop stop-color="white"/>
<stop offset="0.33" stop-color="white"/>
<stop offset="0.52" stop-color="white"/>
<stop offset="0.73" stop-color="white"/>
<stop offset="1" stop-color="white"/>
</linearGradient>
<linearGradient id="paint5_linear_13_623" x1="117.87" y1="139.17" x2="129.32" y2="139.17" gradientUnits="userSpaceOnUse">
<stop stop-color="white"/>
<stop offset="0.33" stop-color="white"/>
<stop offset="0.52" stop-color="white"/>
<stop offset="0.73" stop-color="white"/>
<stop offset="1" stop-color="white"/>
</linearGradient>
<linearGradient id="paint6_linear_13_623" x1="141.12" y1="139.17" x2="151.04" y2="139.17" gradientUnits="userSpaceOnUse">
<stop stop-color="white"/>
<stop offset="0.33" stop-color="white"/>
<stop offset="0.52" stop-color="white"/>
<stop offset="0.73" stop-color="white"/>
<stop offset="1" stop-color="white"/>
</linearGradient>
<linearGradient id="paint7_linear_13_623" x1="0" y1="154.85" x2="4.08" y2="154.85" gradientUnits="userSpaceOnUse">
<stop stop-color="white"/>
<stop offset="0.33" stop-color="white"/>
<stop offset="0.52" stop-color="white"/>
<stop offset="0.73" stop-color="white"/>
<stop offset="1" stop-color="white"/>
</linearGradient>
<linearGradient id="paint8_linear_13_623" x1="8.40039" y1="154.85" x2="13.3704" y2="154.85" gradientUnits="userSpaceOnUse">
<stop stop-color="white"/>
<stop offset="0.33" stop-color="white"/>
<stop offset="0.52" stop-color="white"/>
<stop offset="0.73" stop-color="white"/>
<stop offset="1" stop-color="white"/>
</linearGradient>
<linearGradient id="paint9_linear_13_623" x1="18.5596" y1="154.85" x2="22.7196" y2="154.85" gradientUnits="userSpaceOnUse">
<stop stop-color="white"/>
<stop offset="0.33" stop-color="white"/>
<stop offset="0.52" stop-color="white"/>
<stop offset="0.73" stop-color="white"/>
<stop offset="1" stop-color="white"/>
</linearGradient>
<linearGradient id="paint10_linear_13_623" x1="28.6699" y1="154.85" x2="32.3899" y2="154.85" gradientUnits="userSpaceOnUse">
<stop stop-color="white"/>
<stop offset="0.33" stop-color="white"/>
<stop offset="0.52" stop-color="white"/>
<stop offset="0.73" stop-color="white"/>
<stop offset="1" stop-color="white"/>
</linearGradient>
<linearGradient id="paint11_linear_13_623" x1="38.1299" y1="154.85" x2="39.0099" y2="154.85" gradientUnits="userSpaceOnUse">
<stop stop-color="white"/>
<stop offset="0.33" stop-color="white"/>
<stop offset="0.52" stop-color="white"/>
<stop offset="0.73" stop-color="white"/>
<stop offset="1" stop-color="white"/>
</linearGradient>
<linearGradient id="paint12_linear_13_623" x1="45.1504" y1="154.85" x2="49.5204" y2="154.85" gradientUnits="userSpaceOnUse">
<stop stop-color="white"/>
<stop offset="0.33" stop-color="white"/>
<stop offset="0.52" stop-color="white"/>
<stop offset="0.73" stop-color="white"/>
<stop offset="1" stop-color="white"/>
</linearGradient>
<linearGradient id="paint13_linear_13_623" x1="55.6602" y1="154.85" x2="59.3902" y2="154.85" gradientUnits="userSpaceOnUse">
<stop stop-color="white"/>
<stop offset="0.33" stop-color="white"/>
<stop offset="0.52" stop-color="white"/>
<stop offset="0.73" stop-color="white"/>
<stop offset="1" stop-color="white"/>
</linearGradient>
<linearGradient id="paint14_linear_13_623" x1="71.7998" y1="154.85" x2="75.9598" y2="154.85" gradientUnits="userSpaceOnUse">
<stop stop-color="white"/>
<stop offset="0.33" stop-color="white"/>
<stop offset="0.52" stop-color="white"/>
<stop offset="0.73" stop-color="white"/>
<stop offset="1" stop-color="white"/>
</linearGradient>
<linearGradient id="paint15_linear_13_623" x1="81.7102" y1="154.85" x2="85.8702" y2="154.85" gradientUnits="userSpaceOnUse">
<stop stop-color="white"/>
<stop offset="0.33" stop-color="white"/>
<stop offset="0.52" stop-color="white"/>
<stop offset="0.73" stop-color="white"/>
<stop offset="1" stop-color="white"/>
</linearGradient>
<linearGradient id="paint16_linear_13_623" x1="91.8096" y1="154.85" x2="95.5296" y2="154.85" gradientUnits="userSpaceOnUse">
<stop stop-color="white"/>
<stop offset="0.33" stop-color="white"/>
<stop offset="0.52" stop-color="white"/>
<stop offset="0.73" stop-color="white"/>
<stop offset="1" stop-color="white"/>
</linearGradient>
<linearGradient id="paint17_linear_13_623" x1="100.77" y1="154.85" x2="105.04" y2="154.85" gradientUnits="userSpaceOnUse">
<stop stop-color="white"/>
<stop offset="0.33" stop-color="white"/>
<stop offset="0.52" stop-color="white"/>
<stop offset="0.73" stop-color="white"/>
<stop offset="1" stop-color="white"/>
</linearGradient>
<linearGradient id="paint18_linear_13_623" x1="117.76" y1="154.85" x2="121.83" y2="154.85" gradientUnits="userSpaceOnUse">
<stop stop-color="white"/>
<stop offset="0.33" stop-color="white"/>
<stop offset="0.52" stop-color="white"/>
<stop offset="0.73" stop-color="white"/>
<stop offset="1" stop-color="white"/>
</linearGradient>
<linearGradient id="paint19_linear_13_623" x1="127.97" y1="154.85" x2="131.7" y2="154.85" gradientUnits="userSpaceOnUse">
<stop stop-color="white"/>
<stop offset="0.33" stop-color="white"/>
<stop offset="0.52" stop-color="white"/>
<stop offset="0.73" stop-color="white"/>
<stop offset="1" stop-color="white"/>
</linearGradient>
<linearGradient id="paint20_linear_13_623" x1="137.44" y1="154.85" x2="141.7" y2="154.85" gradientUnits="userSpaceOnUse">
<stop stop-color="white"/>
<stop offset="0.33" stop-color="white"/>
<stop offset="0.52" stop-color="white"/>
<stop offset="0.73" stop-color="white"/>
<stop offset="1" stop-color="white"/>
</linearGradient>
<linearGradient id="paint21_linear_13_623" x1="147.34" y1="154.85" x2="151.06" y2="154.85" gradientUnits="userSpaceOnUse">
<stop stop-color="white"/>
<stop offset="0.33" stop-color="white"/>
<stop offset="0.52" stop-color="white"/>
<stop offset="0.73" stop-color="white"/>
<stop offset="1" stop-color="white"/>
</linearGradient>
<linearGradient id="paint22_linear_13_623" x1="18.5401" y1="48.89" x2="115.47" y2="48.89" gradientUnits="userSpaceOnUse">
<stop stop-color="white"/>
<stop offset="0.33" stop-color="white"/>
<stop offset="0.52" stop-color="white"/>
<stop offset="0.73" stop-color="white"/>
<stop offset="1" stop-color="white"/>
</linearGradient>
<linearGradient id="paint23_linear_13_623" x1="35.5903" y1="64.82" x2="132.52" y2="64.82" gradientUnits="userSpaceOnUse">
<stop stop-color="white"/>
<stop offset="0.33" stop-color="white"/>
<stop offset="0.52" stop-color="white"/>
<stop offset="0.73" stop-color="white"/>
<stop offset="1" stop-color="white"/>
</linearGradient>
</defs>
</svg>
