<svg width="117" height="165" viewBox="0 0 117 165" fill="none" xmlns="http://www.w3.org/2000/svg">
<path d="M106.601 95.23C104.891 98.25 102.861 101.09 100.561 103.7L100.621 103.76L98.4805 105.91C88.9605 115.49 76.2705 120.77 62.7605 120.77C49.2505 120.77 36.6605 115.53 27.1405 106.02C17.6305 96.51 12.3905 83.86 12.3905 70.41C12.3905 69.42 12.4205 68.41 12.4805 67.41C12.4805 67.27 12.5005 67.13 12.5005 66.99V66.95C12.5005 66.86 12.5205 66.77 12.5205 66.67V66.62C12.5405 66.41 12.5605 66.2 12.5705 66C12.5905 65.83 12.6005 65.65 12.6205 65.47C12.6505 65.2 12.6705 64.93 12.7005 64.66C12.7205 64.5 12.7405 64.33 12.7605 64.15C12.7805 63.93 12.8205 63.68 12.8505 63.43C12.8705 63.29 12.8905 63.16 12.9105 63.02C12.9405 62.79 12.9805 62.54 13.0205 62.29C13.0405 62.16 13.0705 62.01 13.0905 61.86C13.1105 61.74 13.1305 61.61 13.1605 61.49C13.1905 61.33 13.2205 61.14 13.2505 60.97C13.2805 60.81 13.3105 60.64 13.3505 60.47C13.3905 60.27 13.4305 60.08 13.4705 59.88C13.7605 58.51 14.1105 57.13 14.5205 55.78V55.74C14.5805 55.56 14.6405 55.39 14.7005 55.21C14.7505 55.06 14.7905 54.91 14.8505 54.75C15.1305 53.87 15.4505 52.98 15.7905 52.12C15.8405 52 15.8805 51.87 15.9405 51.75C15.9905 51.62 16.0505 51.48 16.1005 51.34C16.1705 51.17 16.2405 50.99 16.3205 50.81C16.3805 50.67 16.4405 50.52 16.5105 50.36L16.5405 50.29C16.6305 50.08 16.7205 49.87 16.8205 49.66C16.8905 49.51 16.9605 49.35 17.0305 49.2C18.3005 46.46 19.8405 43.81 21.6005 41.32L21.8805 40.93C22.0805 40.65 22.2805 40.38 22.4805 40.12C22.5805 40 22.6805 39.86 22.7805 39.73C23.0005 39.45 23.2205 39.16 23.4505 38.88C23.5805 38.72 23.7105 38.55 23.8505 38.39C23.9705 38.24 24.1105 38.08 24.2505 37.91C24.3805 37.75 24.5205 37.59 24.6605 37.43C24.8105 37.25 24.9705 37.07 25.1305 36.89L19.2205 30.97C9.41051 41.78 4.02051 55.73 4.02051 70.39C4.02051 86.08 10.1305 100.82 21.2205 111.91C32.3105 123 47.0605 129.11 62.7405 129.11C78.4205 129.11 93.2605 122.97 104.351 111.81C107.521 108.63 110.311 105.1 112.671 101.31L106.571 95.21L106.601 95.23Z" fill="url(#paint0_linear_13_648)"/>
<path d="M31.4505 101.72C39.8105 110.08 50.9405 114.69 62.7705 114.69C63.1405 114.69 63.5105 114.69 63.8805 114.67C64.0605 114.67 64.2405 114.67 64.4305 114.65H64.4605C64.7305 114.64 65.0005 114.63 65.2805 114.61C65.5005 114.6 65.7105 114.59 65.9305 114.57C66.0405 114.57 66.1405 114.55 66.2305 114.55H66.3805C66.5805 114.52 66.7805 114.5 66.9805 114.48C67.1605 114.47 67.3305 114.45 67.5005 114.43C67.6205 114.42 67.7305 114.41 67.8305 114.39L68.0505 114.37C68.2005 114.35 68.3405 114.33 68.4905 114.31C69.0405 114.24 69.5805 114.16 70.1005 114.08C70.2505 114.06 70.3905 114.03 70.5405 114H70.5905C70.7105 113.97 70.8205 113.95 70.9405 113.93H71.0005C71.1505 113.89 71.3005 113.86 71.4505 113.83C71.8505 113.75 72.2405 113.67 72.6305 113.58C72.8905 113.52 73.1505 113.46 73.4105 113.4H73.4405C73.5105 113.38 73.5705 113.36 73.6405 113.34C73.8305 113.29 74.0105 113.25 74.1805 113.2C74.3305 113.16 74.4705 113.12 74.6105 113.08C74.7305 113.05 74.8405 113.02 74.9505 112.99C75.0505 112.96 75.1305 112.94 75.2105 112.91L75.2705 112.89C75.3805 112.86 75.4905 112.83 75.6005 112.79C75.7805 112.74 75.9405 112.69 76.1005 112.64C76.2305 112.6 76.3405 112.56 76.4605 112.53C76.8305 112.41 77.2005 112.28 77.5705 112.15C77.6705 112.11 77.7705 112.08 77.8605 112.04L77.9305 112.02C78.0605 111.97 78.1805 111.93 78.2905 111.89C78.4705 111.82 78.6405 111.76 78.8005 111.7C78.9405 111.65 79.0605 111.6 79.1805 111.55C79.4105 111.46 79.6105 111.38 79.8205 111.29L80.4405 111.03C80.6305 110.95 80.8205 110.87 81.0005 110.78C81.1105 110.73 81.2005 110.69 81.2905 110.65L81.3805 110.61C81.5305 110.54 81.6805 110.47 81.8305 110.39C82.7605 109.95 83.6805 109.47 84.5705 108.97C84.6705 108.92 84.7605 108.86 84.8505 108.81C85.0605 108.69 85.2605 108.57 85.4605 108.45L86.4705 107.83C86.9205 107.55 87.3805 107.24 87.8805 106.9C88.0205 106.8 88.1605 106.71 88.2905 106.61L88.3505 106.57C88.4505 106.5 88.5605 106.42 88.6605 106.35L88.6905 106.33C88.7705 106.28 88.8405 106.22 88.9105 106.17L88.9405 106.15C89.0705 106.06 89.1905 105.97 89.3205 105.87C89.4605 105.76 89.6005 105.66 89.7305 105.56C89.8205 105.49 89.9005 105.42 89.9805 105.36L90.0705 105.29C90.2105 105.18 90.3505 105.07 90.4905 104.96C90.6405 104.84 90.7705 104.73 90.9105 104.61L90.9505 104.58C91.2205 104.36 91.4805 104.14 91.7405 103.91C91.8205 103.84 91.9005 103.77 91.9805 103.7L86.0605 97.78C79.5805 103.31 71.3605 106.33 62.7805 106.33C42.9705 106.33 26.8505 90.21 26.8505 70.4C26.8505 60.75 30.6305 51.68 37.4805 44.89C40.7005 41.7 44.5505 39.1101 48.7105 37.3401L42.4305 31.0601C38.4305 33.1401 34.7705 35.8001 31.5505 39.0001C23.1205 47.3801 18.4805 58.53 18.4805 70.41C18.4805 82.29 23.0905 93.36 31.4505 101.73V101.72Z" fill="url(#paint1_linear_13_648)"/>
<path d="M113.021 59.3799C113.021 43.6999 106.911 28.9499 95.8209 17.8599C84.7309 6.76992 69.9809 0.659912 54.3009 0.659912C38.6209 0.659912 23.7809 6.79993 12.6909 17.9599C9.52086 21.1399 6.73086 24.6699 4.38086 28.4599L10.4809 34.5599C12.1909 31.5399 14.2209 28.6999 16.5209 26.0899L16.4609 26.0299L18.6009 23.8799C28.1209 14.2899 40.8109 9.01993 54.3209 9.01993C67.8309 9.01993 80.4209 14.2599 89.9309 23.7699C99.4409 33.2799 104.681 45.9299 104.681 59.3799C104.681 60.3799 104.651 61.3899 104.591 62.3799C104.591 62.5099 104.571 62.6599 104.571 62.7999C104.571 62.8999 104.551 62.9999 104.551 63.1099V63.1599C104.531 63.3699 104.511 63.5799 104.501 63.7799C104.481 63.9499 104.471 64.1399 104.451 64.3199C104.421 64.5799 104.401 64.8599 104.371 65.1299C104.351 65.2899 104.331 65.46 104.311 65.64C104.291 65.86 104.251 66.1099 104.221 66.3599C104.201 66.4999 104.181 66.6299 104.161 66.7699C104.131 66.9999 104.091 67.2499 104.051 67.4999C104.031 67.6299 104.001 67.7799 103.981 67.9299C103.961 68.0499 103.941 68.1799 103.911 68.2999C103.891 68.4599 103.851 68.6499 103.821 68.8199C103.791 68.9799 103.761 69.1499 103.721 69.3199C103.681 69.5099 103.641 69.7099 103.601 69.9099C103.311 71.2799 102.961 72.6699 102.551 74.0099C102.491 74.1999 102.441 74.3899 102.371 74.5799C102.321 74.7299 102.281 74.8799 102.221 75.0399C101.931 75.9199 101.621 76.8099 101.281 77.6699C101.231 77.7899 101.191 77.9099 101.141 78.0399C101.091 78.1799 101.031 78.31 100.971 78.45C100.901 78.62 100.821 78.7999 100.751 78.9799C100.691 79.1199 100.631 79.2699 100.561 79.4299L100.531 79.4999C100.441 79.7099 100.351 79.9199 100.251 80.1199C100.181 80.2699 100.111 80.4299 100.041 80.5799C98.7709 83.3199 97.2309 85.9699 95.4709 88.4599L95.1909 88.8499C94.9909 89.1299 94.7909 89.3999 94.5909 89.6599C94.4909 89.7899 94.3909 89.9199 94.2909 90.0499C94.0709 90.3299 93.8509 90.6199 93.6209 90.8999C93.4909 91.0599 93.3609 91.23 93.2209 91.39C93.1009 91.53 92.9809 91.6799 92.8509 91.8399L92.8309 91.8699C92.6909 92.0299 92.5509 92.1899 92.4109 92.3499C92.2609 92.5299 92.1009 92.71 91.9409 92.89L97.8509 98.8099C107.661 87.9999 113.051 74.0499 113.051 59.3799H113.021Z" fill="url(#paint2_linear_13_648)"/>
<path d="M68.3605 92.4499L74.6405 98.7299C78.6405 96.6499 82.3005 93.9899 85.5205 90.7899C93.9505 82.4099 98.5905 71.2599 98.5905 59.3799C98.5905 47.4999 93.9805 36.4299 85.6205 28.0699C77.2605 19.7099 66.1305 15.0999 54.3005 15.0999C53.9305 15.0999 53.5605 15.0999 53.1905 15.1199C53.0105 15.1199 52.8205 15.1199 52.6405 15.1399H52.6105C52.3405 15.1499 52.0705 15.1599 51.7905 15.1799C51.5705 15.1899 51.3605 15.1998 51.1405 15.2198C51.0305 15.2198 50.9305 15.2399 50.8405 15.2399H50.6905C50.5005 15.2699 50.2905 15.2899 50.0905 15.2999C49.9105 15.3199 49.7405 15.3299 49.5705 15.3499C49.4505 15.3599 49.3405 15.3699 49.2305 15.3899L49.0605 15.4099C49.0605 15.4099 49.0205 15.4099 49.0005 15.4099C48.8505 15.4299 48.7205 15.4399 48.5705 15.4599C48.0205 15.5299 47.4805 15.6099 46.9605 15.6999C46.8105 15.7199 46.6705 15.7499 46.5205 15.7799H46.4705C46.3505 15.8099 46.2505 15.8299 46.1405 15.8499H46.0705C45.9205 15.8899 45.7805 15.9199 45.6305 15.9499C45.2205 16.0299 44.8305 16.1099 44.4405 16.1999C44.1805 16.2599 43.9205 16.3199 43.6605 16.3799H43.6305C43.5605 16.3999 43.5005 16.4199 43.4305 16.4299C43.2405 16.4799 43.0605 16.5199 42.8905 16.5699C42.7405 16.6099 42.6005 16.6498 42.4605 16.6898C42.3405 16.7198 42.2305 16.7499 42.1205 16.7799C42.0205 16.8099 41.9405 16.8299 41.8605 16.8599L41.8005 16.8799C41.6905 16.9099 41.5805 16.9399 41.4705 16.9799C41.2905 17.0299 41.1305 17.0799 40.9705 17.1299C40.8405 17.1699 40.7305 17.2099 40.6105 17.2399C40.2405 17.3599 39.8705 17.4899 39.5005 17.6199C39.4005 17.6499 39.3105 17.6898 39.2205 17.7198L39.1305 17.7499C39.0105 17.7999 38.9005 17.8299 38.7805 17.8799C38.5905 17.9499 38.4305 18.0099 38.2605 18.0799C38.1205 18.1299 38.0105 18.1799 37.8805 18.2299C37.6505 18.3199 37.4505 18.3999 37.2405 18.4899L36.6205 18.7499C36.4305 18.8299 36.2405 18.9099 36.0605 18.9999C35.9505 19.0499 35.8605 19.0899 35.7705 19.1299L35.6805 19.1699C35.5305 19.2399 35.3805 19.3099 35.2305 19.3899C34.3005 19.8299 33.3805 20.3099 32.4905 20.8099C32.3905 20.8599 32.3005 20.9198 32.2105 20.9698C32.0205 21.0798 31.8205 21.1899 31.6305 21.3099L30.9905 21.6999C30.8605 21.7799 30.7205 21.8699 30.5805 21.9499C30.1305 22.2299 29.6705 22.5399 29.1705 22.8799C29.0405 22.9699 28.9205 23.0599 28.7905 23.1399L28.7105 23.1999C28.5905 23.2799 28.4905 23.3499 28.3905 23.4299L28.3505 23.4599C28.2805 23.5099 28.2105 23.5599 28.1405 23.6099L28.1105 23.6299C27.9805 23.7199 27.8605 23.8099 27.7305 23.9099C27.5905 24.0199 27.4505 24.1198 27.3205 24.2198C27.2205 24.2898 27.1405 24.3599 27.0705 24.4199L26.9705 24.4999C26.8305 24.6099 26.6905 24.7199 26.5505 24.8299C26.3905 24.9499 26.2405 25.0799 26.0905 25.2099C25.8205 25.4299 25.5605 25.6499 25.3005 25.8799C25.2205 25.9499 25.1405 26.0199 25.0605 26.0899L30.9805 32.0099C37.4605 26.4799 45.6805 23.4499 54.2605 23.4499C74.0705 23.4499 90.1906 39.5699 90.1906 59.3799C90.1906 69.0399 86.4105 78.0998 79.5605 84.8998C76.3405 88.0898 72.4905 90.6799 68.3305 92.4499H68.3605Z" fill="url(#paint3_linear_13_648)"/>
<path d="M10.0005 150.11C9.78047 151.09 9.36047 151.84 8.76047 152.35C8.14047 152.84 7.39047 153.1 6.50047 153.1C5.77047 153.1 5.10047 152.92 4.46047 152.55C3.84047 152.19 3.39047 151.62 3.09047 150.87C2.78047 150.12 2.63047 149.23 2.63047 148.23C2.63047 147.45 2.76047 146.68 3.01047 145.95C3.26047 145.22 3.70047 144.64 4.30047 144.2C4.92047 143.78 5.70047 143.56 6.61047 143.56C7.41047 143.56 8.07047 143.74 8.60047 144.14C9.13047 144.52 9.53047 145.14 9.80047 146L9.84047 146.09L11.6605 145.67L11.6205 145.56C11.2705 144.43 10.6705 143.54 9.82047 142.9C8.96047 142.28 7.91047 141.97 6.65047 141.97C5.56047 141.97 4.54047 142.21 3.61047 142.7C2.70047 143.21 1.97047 143.94 1.48047 144.89C0.990469 145.84 0.730469 146.97 0.730469 148.22C0.730469 149.39 0.950469 150.5 1.39047 151.5C1.83047 152.52 2.48047 153.32 3.34047 153.85C4.18047 154.4 5.29047 154.67 6.64047 154.67C7.99047 154.67 9.04047 154.31 9.96047 153.61C10.8705 152.92 11.4905 151.88 11.8405 150.55L11.8805 150.44L10.0405 149.98L10.0005 150.09V150.11Z" fill="url(#paint4_linear_13_648)"/>
<path d="M26.69 142.79C25.76 142.24 24.7 141.97 23.56 141.97C21.79 141.97 20.34 142.55 19.22 143.7C18.11 144.85 17.54 146.47 17.54 148.49C17.54 149.56 17.78 150.58 18.27 151.55C18.74 152.52 19.45 153.28 20.38 153.85C21.31 154.41 22.37 154.69 23.53 154.69C24.62 154.69 25.64 154.43 26.57 153.93C27.52 153.44 28.25 152.67 28.77 151.69C29.28 150.72 29.54 149.6 29.54 148.36C29.54 147.12 29.29 146.05 28.81 145.08C28.32 144.11 27.61 143.35 26.68 142.8L26.69 142.79ZM26.49 151.86C25.72 152.68 24.72 153.1 23.54 153.1C22.36 153.1 21.39 152.68 20.61 151.88C19.85 151.06 19.44 149.93 19.44 148.51C19.44 146.74 19.86 145.45 20.66 144.7C21.46 143.95 22.45 143.57 23.56 143.57C24.36 143.57 25.07 143.77 25.71 144.15C26.33 144.53 26.82 145.1 27.15 145.81C27.48 146.52 27.64 147.38 27.64 148.34C27.64 149.85 27.26 151.04 26.49 151.86Z" fill="url(#paint5_linear_13_648)"/>
<path d="M45.4701 142.5L42.5401 150.86C42.3001 151.53 42.1201 152.06 41.9901 152.48L41.5001 151.02L38.5701 142.39H38.3701V146.85L41.0801 154.68H42.7001L45.4701 146.86V142.49V142.5Z" fill="url(#paint6_linear_13_648)"/>
<path d="M37.7207 142.39H35.9307V154.69H37.7207V142.39Z" fill="url(#paint7_linear_13_648)"/>
<path d="M47.9009 142.39H46.1309V154.69H47.9009V142.39Z" fill="url(#paint8_linear_13_648)"/>
<path d="M56.1105 142.39H54.2705V154.69H56.1105V142.39Z" fill="url(#paint9_linear_13_648)"/>
<path d="M63.5105 144.3C63.2405 143.79 62.9105 143.37 62.4705 143.1C62.0505 142.81 61.5205 142.61 60.9205 142.52C60.4805 142.43 59.8505 142.39 59.0305 142.39H56.7705V144.03H59.1605C59.8905 144.03 60.3805 144.07 60.6505 144.14C61.0505 144.25 61.3805 144.47 61.6205 144.81C61.8705 145.16 61.9805 145.56 61.9805 146.05C61.9805 146.71 61.7805 147.22 61.3605 147.58C60.9405 147.94 60.2105 148.13 59.1905 148.13H56.7705V149.79H59.1705C60.9205 149.79 62.1805 149.41 62.8505 148.68C63.5405 147.95 63.8905 147.06 63.8905 146C63.8905 145.38 63.7605 144.82 63.5105 144.31V144.3Z" fill="url(#paint10_linear_13_648)"/>
<path d="M75.0707 142.39L70.2607 154.69H72.2107L72.7607 153.25H72.7407L74.1207 149.52L74.4107 148.75L75.4307 146.04H75.4507C75.6707 145.44 75.8507 144.82 76.0007 144.22C76.1807 144.8 76.4407 145.51 76.7507 146.31L77.9907 149.52H74.8407L74.2807 151.03H78.5807L80.0207 154.69H82.1107L76.9707 142.39H75.0807H75.0707Z" fill="url(#paint11_linear_13_648)"/>
<path d="M90.0108 142.39H88.3008V154.69H90.0108V142.39Z" fill="url(#paint12_linear_13_648)"/>
<path d="M96.4206 151.63L96.3906 151.57V154.69H98.2106V142.39H96.4206V151.63Z" fill="url(#paint13_linear_13_648)"/>
<path d="M90.6709 146.33L95.7309 153.76V150.61L90.6709 143.19V146.33Z" fill="url(#paint14_linear_13_648)"/>
<path d="M114.131 142.39L111.711 146C111.241 146.71 110.821 147.38 110.451 147.97V147.95L109.431 149.5V154.69H111.291V149.5L116.301 142.4H114.131V142.39Z" fill="url(#paint15_linear_13_648)"/>
<path d="M110.071 147.31L109.301 146.09L106.841 142.39H104.591L109.031 148.91L110.071 147.31Z" fill="url(#paint16_linear_13_648)"/>
<path d="M0.75 160.82H1.97V164.68H2.65V160.82H3.87V160.22H0.75V160.82Z" fill="url(#paint17_linear_13_648)"/>
<path d="M8.7909 160.22L7.1709 164.68H7.8909L8.2309 163.68H9.9209L10.2709 164.68H10.9809L9.3609 160.22H8.7909ZM8.4209 163.08L9.0709 161.13H9.0809L9.7309 163.08H8.4309H8.4209Z" fill="url(#paint18_linear_13_648)"/>
<path d="M16.5509 162.86H17.4609V163.09C17.4609 163.37 17.3709 163.59 17.2009 163.77C17.0309 163.95 16.8109 164.04 16.5509 164.04C16.3909 164.04 16.2509 164.01 16.1409 163.94C16.0209 163.88 15.9309 163.81 15.8609 163.72C15.7709 163.62 15.7109 163.5 15.6909 163.34C15.6609 163.19 15.6409 162.89 15.6409 162.45C15.6409 162.01 15.6609 161.71 15.6909 161.55C15.7209 161.4 15.7809 161.28 15.8609 161.18C15.9309 161.09 16.0209 161.01 16.1409 160.95C16.2509 160.89 16.3909 160.86 16.5509 160.86C16.7709 160.86 16.9509 160.93 17.1009 161.05C17.2409 161.18 17.3409 161.33 17.4009 161.51H18.1209C18.0509 161.14 17.8809 160.82 17.6109 160.57C17.3409 160.32 16.9909 160.19 16.5609 160.19C16.2109 160.19 15.9209 160.28 15.6809 160.44C15.4409 160.6 15.2709 160.78 15.1609 160.99C15.0909 161.1 15.0409 161.24 15.0109 161.41C14.9809 161.59 14.9609 161.93 14.9609 162.45C14.9609 162.97 14.9809 163.3 15.0109 163.48C15.0309 163.58 15.0509 163.66 15.0709 163.72C15.1009 163.78 15.1309 163.85 15.1609 163.91C15.2709 164.12 15.4409 164.3 15.6809 164.45C15.9109 164.61 16.2109 164.7 16.5609 164.71C17.0109 164.71 17.3909 164.55 17.6909 164.25C17.9909 163.95 18.1409 163.57 18.1509 163.13V162.22H16.5709V162.86H16.5509Z" fill="url(#paint19_linear_13_648)"/>
<path d="M23.3507 160.22H22.6807V164.68H25.5207V164.04H23.3507V160.22Z" fill="url(#paint20_linear_13_648)"/>
<path d="M30.6009 160.22H29.9209V164.68H30.6009V160.22Z" fill="url(#paint21_linear_13_648)"/>
<path d="M37.96 163.39H37.95L35.93 160.22H35.29V164.68H35.97V161.51H35.98L37.99 164.68H38.63V160.22H37.96V163.39Z" fill="url(#paint22_linear_13_648)"/>
<path d="M43.3301 164.68H46.1801V164.04H44.0101V162.73H45.8601V162.13H44.0101V160.86H46.1801V160.22H43.3301V164.68Z" fill="url(#paint23_linear_13_648)"/>
<path d="M57.2804 162.86H58.1904V163.09C58.1904 163.37 58.1004 163.59 57.9304 163.77C57.7604 163.95 57.5404 164.04 57.2804 164.04C57.1204 164.04 56.9804 164.01 56.8704 163.94C56.7504 163.88 56.6604 163.81 56.5904 163.72C56.5004 163.62 56.4404 163.5 56.4204 163.34C56.3904 163.19 56.3704 162.89 56.3704 162.45C56.3704 162.01 56.3904 161.71 56.4204 161.55C56.4504 161.4 56.5104 161.28 56.5904 161.18C56.6604 161.09 56.7604 161.01 56.8704 160.95C56.9804 160.89 57.1204 160.86 57.2804 160.86C57.5004 160.86 57.6804 160.93 57.8304 161.05C57.9704 161.18 58.0704 161.33 58.1304 161.51H58.8504C58.7804 161.14 58.6104 160.82 58.3404 160.57C58.0704 160.32 57.7204 160.19 57.2904 160.19C56.9404 160.19 56.6504 160.28 56.4104 160.44C56.1704 160.6 56.0004 160.78 55.8904 160.99C55.8204 161.1 55.7704 161.24 55.7404 161.41C55.7104 161.59 55.6904 161.93 55.6904 162.45C55.6904 162.97 55.7104 163.3 55.7404 163.48C55.7604 163.58 55.7804 163.66 55.8004 163.72C55.8304 163.78 55.8604 163.85 55.8904 163.91C56.0004 164.12 56.1704 164.3 56.4104 164.45C56.6404 164.61 56.9404 164.7 57.2904 164.71C57.7404 164.71 58.1204 164.55 58.4204 164.25C58.7204 163.95 58.8704 163.57 58.8804 163.13V162.22H57.3004V162.86H57.2804Z" fill="url(#paint24_linear_13_648)"/>
<path d="M66.2402 160.98C66.1402 160.77 65.9702 160.59 65.7302 160.43C65.4902 160.27 65.2002 160.18 64.8402 160.18C64.4902 160.18 64.2002 160.27 63.9602 160.43C63.7202 160.59 63.5502 160.77 63.4402 160.98C63.3702 161.09 63.3202 161.23 63.2902 161.4C63.2602 161.58 63.2402 161.92 63.2402 162.44C63.2402 162.96 63.2602 163.29 63.2902 163.47C63.3102 163.57 63.3302 163.65 63.3502 163.71C63.3802 163.77 63.4102 163.84 63.4402 163.9C63.5502 164.11 63.7202 164.29 63.9602 164.44C64.1902 164.6 64.4902 164.69 64.8402 164.7C65.1902 164.7 65.4902 164.61 65.7302 164.44C65.9602 164.28 66.1302 164.1 66.2402 163.9C66.3202 163.79 66.3702 163.65 66.4002 163.47C66.4302 163.29 66.4402 162.95 66.4402 162.44C66.4402 161.93 66.4302 161.58 66.4002 161.4C66.3702 161.22 66.3202 161.08 66.2402 160.98ZM65.7102 163.33C65.6802 163.49 65.6202 163.61 65.5302 163.71C65.4602 163.8 65.3702 163.88 65.2602 163.93C65.1402 164 65.0002 164.03 64.8402 164.03C64.6802 164.03 64.5402 164 64.4302 163.93C64.3102 163.87 64.2202 163.8 64.1502 163.71C64.0602 163.61 64.0002 163.49 63.9802 163.33C63.9502 163.18 63.9302 162.88 63.9302 162.44C63.9302 162 63.9502 161.7 63.9802 161.54C64.0102 161.39 64.0702 161.27 64.1502 161.17C64.2202 161.08 64.3102 161 64.4302 160.94C64.5402 160.88 64.6802 160.85 64.8402 160.85C65.0002 160.85 65.1402 160.89 65.2602 160.94C65.3702 161 65.4602 161.08 65.5302 161.17C65.6202 161.27 65.6802 161.39 65.7102 161.54C65.7402 161.7 65.7602 162 65.7602 162.44C65.7602 162.88 65.7402 163.17 65.7102 163.33Z" fill="url(#paint25_linear_13_648)"/>
<path d="M70.9902 164.68H73.8302V164.04H71.6602V162.73H73.5102V162.13H71.6602V160.86H73.8302V160.22H70.9902V164.68Z" fill="url(#paint26_linear_13_648)"/>
<path d="M79.8803 162.13C79.6703 162.1 79.5003 162.08 79.3803 162.06C79.1603 162.02 79.0003 161.95 78.9003 161.84C78.8003 161.74 78.7503 161.62 78.7503 161.49C78.7503 161.28 78.8303 161.11 78.9703 161.01C79.1103 160.91 79.2803 160.85 79.4903 160.85C79.8903 160.85 80.2603 160.97 80.5903 161.19L80.9703 160.63C80.5603 160.33 80.0803 160.18 79.5203 160.17C79.0603 160.17 78.7003 160.29 78.4503 160.53C78.1903 160.77 78.0603 161.08 78.0603 161.47C78.0603 161.79 78.1603 162.07 78.3703 162.3C78.5703 162.52 78.8603 162.66 79.2403 162.72C79.4503 162.75 79.6503 162.78 79.8303 162.8C80.2203 162.87 80.4103 163.07 80.4103 163.4C80.4103 163.81 80.1103 164.01 79.5303 164.02C79.0403 164.02 78.6203 163.87 78.2603 163.58L77.8203 164.09C78.3003 164.5 78.8603 164.7 79.5203 164.7C80.5403 164.69 81.0603 164.26 81.0903 163.4C81.0903 163.08 80.9903 162.81 80.7903 162.57C80.5903 162.33 80.2803 162.18 79.8603 162.12L79.8803 162.13Z" fill="url(#paint27_linear_13_648)"/>
<path d="M93.2808 162.13H91.5108V160.22H90.8408V164.68H91.5108V162.73H93.2808V164.68H93.9508V160.22H93.2808V162.13Z" fill="url(#paint28_linear_13_648)"/>
<path d="M98.6504 164.68H101.5V164.04H99.3304V162.73H101.18V162.13H99.3304V160.86H101.5V160.22H98.6504V164.68Z" fill="url(#paint29_linear_13_648)"/>
<path d="M108.981 161.46C108.971 161.05 108.821 160.73 108.541 160.51C108.311 160.31 108.001 160.22 107.631 160.22H105.891V164.68H106.571V162.77H107.431L108.351 164.68H109.151L108.121 162.7C108.691 162.48 108.971 162.07 108.981 161.46ZM106.561 162.17V160.82H107.621C107.841 160.82 108.001 160.87 108.121 160.96C108.261 161.06 108.341 161.23 108.341 161.46C108.341 161.65 108.281 161.82 108.151 161.95C108.021 162.09 107.831 162.17 107.581 162.17H106.561Z" fill="url(#paint30_linear_13_648)"/>
<path d="M113.471 164.68H116.321V164.04H114.141V162.73H116.001V162.13H114.141V160.86H116.321V160.22H113.471V164.68Z" fill="url(#paint31_linear_13_648)"/>
<defs>
<linearGradient id="paint0_linear_13_648" x1="4.05051" y1="80.05" x2="112.701" y2="80.05" gradientUnits="userSpaceOnUse">
<stop stop-color="white"/>
<stop offset="0.33" stop-color="white"/>
<stop offset="0.52" stop-color="white"/>
<stop offset="0.73" stop-color="white"/>
<stop offset="1" stop-color="white"/>
</linearGradient>
<linearGradient id="paint1_linear_13_648" x1="18.4805" y1="72.8701" x2="91.9705" y2="72.8701" gradientUnits="userSpaceOnUse">
<stop stop-color="white"/>
<stop offset="0.33" stop-color="white"/>
<stop offset="0.52" stop-color="white"/>
<stop offset="0.73" stop-color="white"/>
<stop offset="1" stop-color="white"/>
</linearGradient>
<linearGradient id="paint2_linear_13_648" x1="4.37086" y1="49.7299" x2="113.021" y2="49.7299" gradientUnits="userSpaceOnUse">
<stop stop-color="white"/>
<stop offset="0.33" stop-color="white"/>
<stop offset="0.52" stop-color="white"/>
<stop offset="0.73" stop-color="white"/>
<stop offset="1" stop-color="white"/>
</linearGradient>
<linearGradient id="paint3_linear_13_648" x1="25.0905" y1="56.9099" x2="98.5805" y2="56.9099" gradientUnits="userSpaceOnUse">
<stop stop-color="white"/>
<stop offset="0.33" stop-color="white"/>
<stop offset="0.52" stop-color="white"/>
<stop offset="0.73" stop-color="white"/>
<stop offset="1" stop-color="white"/>
</linearGradient>
<linearGradient id="paint4_linear_13_648" x1="0.750469" y1="148.34" x2="11.8805" y2="148.34" gradientUnits="userSpaceOnUse">
<stop stop-color="white"/>
<stop offset="0.33" stop-color="white"/>
<stop offset="0.52" stop-color="white"/>
<stop offset="0.73" stop-color="white"/>
<stop offset="1" stop-color="white"/>
</linearGradient>
<linearGradient id="paint5_linear_13_648" x1="17.55" y1="148.33" x2="29.55" y2="148.33" gradientUnits="userSpaceOnUse">
<stop stop-color="white"/>
<stop offset="0.33" stop-color="white"/>
<stop offset="0.52" stop-color="white"/>
<stop offset="0.73" stop-color="white"/>
<stop offset="1" stop-color="white"/>
</linearGradient>
<linearGradient id="paint6_linear_13_648" x1="38.3701" y1="148.54" x2="45.4701" y2="148.54" gradientUnits="userSpaceOnUse">
<stop stop-color="white"/>
<stop offset="0.33" stop-color="white"/>
<stop offset="0.52" stop-color="white"/>
<stop offset="0.73" stop-color="white"/>
<stop offset="1" stop-color="white"/>
</linearGradient>
<linearGradient id="paint7_linear_13_648" x1="35.9307" y1="148.54" x2="37.7107" y2="148.54" gradientUnits="userSpaceOnUse">
<stop stop-color="white"/>
<stop offset="0.33" stop-color="white"/>
<stop offset="0.52" stop-color="white"/>
<stop offset="0.73" stop-color="white"/>
<stop offset="1" stop-color="white"/>
</linearGradient>
<linearGradient id="paint8_linear_13_648" x1="46.1309" y1="148.54" x2="47.8909" y2="148.54" gradientUnits="userSpaceOnUse">
<stop stop-color="white"/>
<stop offset="0.33" stop-color="white"/>
<stop offset="0.52" stop-color="white"/>
<stop offset="0.73" stop-color="white"/>
<stop offset="1" stop-color="white"/>
</linearGradient>
<linearGradient id="paint9_linear_13_648" x1="54.2705" y1="148.54" x2="56.1105" y2="148.54" gradientUnits="userSpaceOnUse">
<stop stop-color="white"/>
<stop offset="0.33" stop-color="white"/>
<stop offset="0.52" stop-color="white"/>
<stop offset="0.73" stop-color="white"/>
<stop offset="1" stop-color="white"/>
</linearGradient>
<linearGradient id="paint10_linear_13_648" x1="56.7705" y1="146.09" x2="63.8905" y2="146.09" gradientUnits="userSpaceOnUse">
<stop stop-color="white"/>
<stop offset="0.33" stop-color="white"/>
<stop offset="0.52" stop-color="white"/>
<stop offset="0.73" stop-color="white"/>
<stop offset="1" stop-color="white"/>
</linearGradient>
<linearGradient id="paint11_linear_13_648" x1="70.2607" y1="148.54" x2="82.1107" y2="148.54" gradientUnits="userSpaceOnUse">
<stop stop-color="white"/>
<stop offset="0.33" stop-color="white"/>
<stop offset="0.52" stop-color="white"/>
<stop offset="0.73" stop-color="white"/>
<stop offset="1" stop-color="white"/>
</linearGradient>
<linearGradient id="paint12_linear_13_648" x1="88.3008" y1="148.54" x2="90.0108" y2="148.54" gradientUnits="userSpaceOnUse">
<stop stop-color="white"/>
<stop offset="0.33" stop-color="white"/>
<stop offset="0.52" stop-color="white"/>
<stop offset="0.73" stop-color="white"/>
<stop offset="1" stop-color="white"/>
</linearGradient>
<linearGradient id="paint13_linear_13_648" x1="96.3906" y1="148.54" x2="98.2106" y2="148.54" gradientUnits="userSpaceOnUse">
<stop stop-color="white"/>
<stop offset="0.33" stop-color="white"/>
<stop offset="0.52" stop-color="white"/>
<stop offset="0.73" stop-color="white"/>
<stop offset="1" stop-color="white"/>
</linearGradient>
<linearGradient id="paint14_linear_13_648" x1="90.6709" y1="148.48" x2="95.7309" y2="148.48" gradientUnits="userSpaceOnUse">
<stop stop-color="white"/>
<stop offset="0.33" stop-color="white"/>
<stop offset="0.52" stop-color="white"/>
<stop offset="0.73" stop-color="white"/>
<stop offset="1" stop-color="white"/>
</linearGradient>
<linearGradient id="paint15_linear_13_648" x1="109.431" y1="148.54" x2="116.301" y2="148.54" gradientUnits="userSpaceOnUse">
<stop stop-color="white"/>
<stop offset="0.33" stop-color="white"/>
<stop offset="0.52" stop-color="white"/>
<stop offset="0.73" stop-color="white"/>
<stop offset="1" stop-color="white"/>
</linearGradient>
<linearGradient id="paint16_linear_13_648" x1="104.591" y1="145.65" x2="110.071" y2="145.65" gradientUnits="userSpaceOnUse">
<stop stop-color="white"/>
<stop offset="0.33" stop-color="white"/>
<stop offset="0.52" stop-color="white"/>
<stop offset="0.73" stop-color="white"/>
<stop offset="1" stop-color="white"/>
</linearGradient>
<linearGradient id="paint17_linear_13_648" x1="0.75" y1="162.45" x2="3.87" y2="162.45" gradientUnits="userSpaceOnUse">
<stop stop-color="white"/>
<stop offset="0.33" stop-color="white"/>
<stop offset="0.52" stop-color="white"/>
<stop offset="0.73" stop-color="white"/>
<stop offset="1" stop-color="white"/>
</linearGradient>
<linearGradient id="paint18_linear_13_648" x1="7.1709" y1="162.45" x2="10.9809" y2="162.45" gradientUnits="userSpaceOnUse">
<stop stop-color="white"/>
<stop offset="0.33" stop-color="white"/>
<stop offset="0.52" stop-color="white"/>
<stop offset="0.73" stop-color="white"/>
<stop offset="1" stop-color="white"/>
</linearGradient>
<linearGradient id="paint19_linear_13_648" x1="14.9509" y1="162.45" x2="18.1309" y2="162.45" gradientUnits="userSpaceOnUse">
<stop stop-color="white"/>
<stop offset="0.33" stop-color="white"/>
<stop offset="0.52" stop-color="white"/>
<stop offset="0.73" stop-color="white"/>
<stop offset="1" stop-color="white"/>
</linearGradient>
<linearGradient id="paint20_linear_13_648" x1="22.6807" y1="162.45" x2="25.5207" y2="162.45" gradientUnits="userSpaceOnUse">
<stop stop-color="white"/>
<stop offset="0.33" stop-color="white"/>
<stop offset="0.52" stop-color="white"/>
<stop offset="0.73" stop-color="white"/>
<stop offset="1" stop-color="white"/>
</linearGradient>
<linearGradient id="paint21_linear_13_648" x1="29.9209" y1="162.45" x2="30.5909" y2="162.45" gradientUnits="userSpaceOnUse">
<stop stop-color="white"/>
<stop offset="0.33" stop-color="white"/>
<stop offset="0.52" stop-color="white"/>
<stop offset="0.73" stop-color="white"/>
<stop offset="1" stop-color="white"/>
</linearGradient>
<linearGradient id="paint22_linear_13_648" x1="35.29" y1="162.45" x2="38.63" y2="162.45" gradientUnits="userSpaceOnUse">
<stop stop-color="white"/>
<stop offset="0.33" stop-color="white"/>
<stop offset="0.52" stop-color="white"/>
<stop offset="0.73" stop-color="white"/>
<stop offset="1" stop-color="white"/>
</linearGradient>
<linearGradient id="paint23_linear_13_648" x1="43.3301" y1="162.45" x2="46.1801" y2="162.45" gradientUnits="userSpaceOnUse">
<stop stop-color="white"/>
<stop offset="0.33" stop-color="white"/>
<stop offset="0.52" stop-color="white"/>
<stop offset="0.73" stop-color="white"/>
<stop offset="1" stop-color="white"/>
</linearGradient>
<linearGradient id="paint24_linear_13_648" x1="55.6804" y1="162.45" x2="58.8604" y2="162.45" gradientUnits="userSpaceOnUse">
<stop stop-color="white"/>
<stop offset="0.33" stop-color="white"/>
<stop offset="0.52" stop-color="white"/>
<stop offset="0.73" stop-color="white"/>
<stop offset="1" stop-color="white"/>
</linearGradient>
<linearGradient id="paint25_linear_13_648" x1="63.2602" y1="162.45" x2="66.4402" y2="162.45" gradientUnits="userSpaceOnUse">
<stop stop-color="white"/>
<stop offset="0.33" stop-color="white"/>
<stop offset="0.52" stop-color="white"/>
<stop offset="0.73" stop-color="white"/>
<stop offset="1" stop-color="white"/>
</linearGradient>
<linearGradient id="paint26_linear_13_648" x1="70.9902" y1="162.45" x2="73.8302" y2="162.45" gradientUnits="userSpaceOnUse">
<stop stop-color="white"/>
<stop offset="0.33" stop-color="white"/>
<stop offset="0.52" stop-color="white"/>
<stop offset="0.73" stop-color="white"/>
<stop offset="1" stop-color="white"/>
</linearGradient>
<linearGradient id="paint27_linear_13_648" x1="77.8403" y1="162.45" x2="81.1103" y2="162.45" gradientUnits="userSpaceOnUse">
<stop stop-color="white"/>
<stop offset="0.33" stop-color="white"/>
<stop offset="0.52" stop-color="white"/>
<stop offset="0.73" stop-color="white"/>
<stop offset="1" stop-color="white"/>
</linearGradient>
<linearGradient id="paint28_linear_13_648" x1="90.8408" y1="162.45" x2="93.9508" y2="162.45" gradientUnits="userSpaceOnUse">
<stop stop-color="white"/>
<stop offset="0.33" stop-color="white"/>
<stop offset="0.52" stop-color="white"/>
<stop offset="0.73" stop-color="white"/>
<stop offset="1" stop-color="white"/>
</linearGradient>
<linearGradient id="paint29_linear_13_648" x1="98.6504" y1="162.45" x2="101.5" y2="162.45" gradientUnits="userSpaceOnUse">
<stop stop-color="white"/>
<stop offset="0.33" stop-color="white"/>
<stop offset="0.52" stop-color="white"/>
<stop offset="0.73" stop-color="white"/>
<stop offset="1" stop-color="white"/>
</linearGradient>
<linearGradient id="paint30_linear_13_648" x1="105.891" y1="162.45" x2="109.151" y2="162.45" gradientUnits="userSpaceOnUse">
<stop stop-color="white"/>
<stop offset="0.33" stop-color="white"/>
<stop offset="0.52" stop-color="white"/>
<stop offset="0.73" stop-color="white"/>
<stop offset="1" stop-color="white"/>
</linearGradient>
<linearGradient id="paint31_linear_13_648" x1="113.471" y1="162.45" x2="116.321" y2="162.45" gradientUnits="userSpaceOnUse">
<stop stop-color="white"/>
<stop offset="0.33" stop-color="white"/>
<stop offset="0.52" stop-color="white"/>
<stop offset="0.73" stop-color="white"/>
<stop offset="1" stop-color="white"/>
</linearGradient>
</defs>
</svg>
