<svg width="132" height="172" viewBox="0 0 132 172" fill="none" xmlns="http://www.w3.org/2000/svg">
<path d="M2.24963 170.64H3.46964V163.7H5.31964V162.55H0.389648V163.7H2.24963V170.64Z" fill="url(#paint0_linear_13_873)"/>
<path d="M11.7299 170.64L12.6299 168.68H16.0899L16.9399 170.64H18.2799L14.4199 162.04L10.4199 170.64H11.7399H11.7299ZM14.3999 164.78L15.5999 167.53H13.1399L14.3999 164.78Z" fill="url(#paint1_linear_13_873)"/>
<path d="M28.1299 163.55C29.0799 163.55 29.8899 163.99 30.5599 164.88L31.4299 164.05C30.9199 163.47 30.4099 163.05 29.8799 162.79C29.3299 162.53 28.7399 162.4 28.1099 162.4C26.9299 162.4 25.9299 162.81 25.1099 163.63C24.2899 164.45 23.8799 165.44 23.8799 166.62C23.8799 167.8 24.2799 168.75 25.0899 169.57C25.8999 170.39 26.8699 170.8 27.9999 170.8C29.1299 170.8 30.1099 170.38 30.8699 169.53C31.1999 169.15 31.4399 168.75 31.5799 168.31C31.7199 167.84 31.7899 167.3 31.7899 166.7V166.43H28.4499V167.58H30.4698C30.4098 168.15 30.1499 168.64 29.6699 169.05C29.1899 169.46 28.6499 169.66 28.0499 169.66C27.3399 169.66 26.6899 169.39 26.0899 168.85C25.4399 168.27 25.1199 167.52 25.1199 166.62C25.1199 165.72 25.4099 165.02 25.9899 164.44C26.5699 163.85 27.2899 163.55 28.1399 163.55H28.1299Z" fill="url(#paint2_linear_13_873)"/>
<path d="M39.6592 162.55V170.64H43.2592V169.49H40.8792V162.55H39.6592Z" fill="url(#paint3_linear_13_873)"/>
<path d="M50.9993 162.55H49.7793V170.64H50.9993V162.55Z" fill="url(#paint4_linear_13_873)"/>
<path d="M58.3096 170.64H59.5296V164.98L65.4296 171.13V162.55H64.2096V168.17L58.3096 162V170.64Z" fill="url(#paint5_linear_13_873)"/>
<path d="M72.7295 170.64H77.1995V169.49H73.9495V166.79H77.0995V165.64H73.9495V163.7H77.1995V162.55H72.7295V170.64Z" fill="url(#paint6_linear_13_873)"/>
<path d="M95.0996 165.71H91.6096V162.55H90.3896V170.64H91.6096V166.86H95.0996V170.64H96.3196V162.55H95.0996V165.71Z" fill="url(#paint7_linear_13_873)"/>
<path d="M108.089 163.7V162.55H103.619V170.64H108.089V169.49H104.849V166.79H107.989V165.64H104.849V163.7H108.089Z" fill="url(#paint8_linear_13_873)"/>
<path d="M117.8 167.19C118.34 167.07 118.77 166.81 119.1 166.39C119.43 165.98 119.59 165.49 119.59 164.91C119.59 164.18 119.33 163.59 118.81 163.14C118.33 162.74 117.56 162.54 116.49 162.54H115.06V170.63H116.28V167.32H116.5L118.81 170.63H120.31L117.81 167.19H117.8ZM116.28 166.26V163.69H116.72C117.84 163.69 118.41 164.11 118.41 164.93C118.41 165.81 117.83 166.26 116.67 166.26H116.28Z" fill="url(#paint9_linear_13_873)"/>
<path d="M131.35 163.7V162.55H126.88V170.64H131.35V169.49H128.1V166.79H131.25V165.64H128.1V163.7H131.35Z" fill="url(#paint10_linear_13_873)"/>
<path d="M27.3896 75.5499L81.0797 21.8599V0.389893L27.3896 54.0799V75.5499Z" fill="url(#paint11_linear_13_873)"/>
<path d="M27.3896 122.21L81.0797 68.5199V51.1699L27.3896 104.86V122.21Z" fill="url(#paint12_linear_13_873)"/>
<path d="M50.6494 75.5498L104.349 21.8598V3.81982L50.6494 57.5098V75.5498Z" fill="url(#paint13_linear_13_873)"/>
<path d="M104.349 50.48L50.6494 104.17V122.21L104.349 68.52V50.48Z" fill="url(#paint14_linear_13_873)"/>
<path d="M2.59991 152.23C3.28991 152.9 4.0999 153.42 5.0499 153.79C5.9999 154.16 7.0399 154.34 8.1799 154.34C9.3199 154.34 10.2799 154.13 11.2299 153.72C12.1899 153.3 12.9999 152.64 13.6599 151.73L11.4999 150.19C11.0099 150.81 10.4899 151.27 9.9299 151.55C9.3699 151.83 8.78992 151.98 8.19992 151.98C7.43992 151.98 6.74991 151.84 6.12991 151.56C5.50991 151.28 4.97992 150.9 4.53992 150.42C4.09992 149.94 3.74992 149.36 3.50992 148.7C3.26992 148.04 3.1499 147.31 3.1499 146.52C3.1499 145.79 3.26992 145.1 3.50992 144.46C3.74992 143.82 4.08992 143.27 4.53992 142.79C4.97992 142.31 5.50991 141.94 6.12991 141.67C6.74991 141.4 7.43992 141.26 8.19992 141.26C8.70992 141.26 9.21992 141.36 9.72992 141.55C10.2399 141.74 10.7599 142.13 11.2999 142.71L13.3399 141.21C12.6099 140.37 11.8099 139.77 10.9599 139.41C10.1099 139.06 9.17991 138.88 8.18991 138.88C7.04991 138.88 6.00991 139.06 5.05991 139.43C4.10991 139.8 3.28989 140.32 2.60989 141C1.91989 141.68 1.38991 142.5 0.999908 143.46C0.609908 144.42 0.419922 145.49 0.419922 146.67C0.419922 147.85 0.609908 148.87 0.999908 149.81C1.38991 150.75 1.91989 151.56 2.60989 152.23H2.59991Z" fill="url(#paint15_linear_13_873)"/>
<path d="M20.98 152.23C21.67 152.9 22.48 153.42 23.43 153.79C24.38 154.16 25.42 154.34 26.56 154.34C27.71 154.33 28.76 154.13 29.72 153.75C30.68 153.37 31.5 152.84 32.19 152.16C32.88 151.48 33.42 150.67 33.81 149.73C34.2 148.79 34.39 147.74 34.39 146.59C34.39 145.44 34.2 144.35 33.81 143.39C33.42 142.43 32.88 141.62 32.19 140.94C31.5 140.26 30.67 139.75 29.72 139.39C28.76 139.04 27.71 138.87 26.56 138.88C25.42 138.88 24.38 139.06 23.43 139.43C22.48 139.8 21.66 140.32 20.98 141C20.29 141.68 19.76 142.5 19.37 143.46C18.98 144.42 18.79 145.49 18.79 146.67C18.79 147.85 18.98 148.87 19.37 149.81C19.76 150.75 20.29 151.56 20.98 152.23ZM21.89 144.45C22.13 143.81 22.47 143.26 22.92 142.78C23.36 142.3 23.89 141.93 24.51 141.66C25.13 141.39 25.81 141.25 26.58 141.25C27.35 141.25 28.03 141.39 28.66 141.66C29.28 141.93 29.82 142.3 30.26 142.78C30.7 143.26 31.05 143.82 31.29 144.45C31.53 145.09 31.6501 145.77 31.6501 146.51C31.6501 147.3 31.53 148.03 31.29 148.69C31.05 149.35 30.7 149.93 30.26 150.41C29.82 150.9 29.28 151.28 28.66 151.55C28.04 151.83 27.34 151.97 26.58 151.97C25.82 151.97 25.13 151.83 24.51 151.55C23.89 151.27 23.36 150.89 22.92 150.41C22.48 149.93 22.13 149.35 21.89 148.69C21.65 148.03 21.53 147.3 21.53 146.51C21.53 145.78 21.65 145.09 21.89 144.45Z" fill="url(#paint16_linear_13_873)"/>
<path d="M45.0897 139.26H41.0996V153.97H43.5996V141.75H43.6396L48.1096 153.97H49.9296L54.3997 141.75H54.4396V153.97H56.9296V139.26H52.9896L49.0197 149.56L45.0897 139.26Z" fill="url(#paint17_linear_13_873)"/>
<path d="M67.0494 147.88H68.9194C69.6994 147.88 70.4395 147.82 71.1495 147.71C71.8595 147.6 72.4895 147.39 73.0295 147.08C73.5695 146.77 73.9995 146.33 74.3195 145.76C74.6395 145.19 74.7994 144.44 74.7994 143.52C74.7994 142.7 74.6494 142.02 74.3494 141.47C74.0494 140.92 73.6494 140.49 73.1594 140.16C72.6594 139.83 72.0794 139.6 71.4294 139.46C70.7694 139.32 70.0895 139.25 69.3795 139.25H64.4395V153.96H67.0594V147.87L67.0494 147.88ZM67.0494 141.5H68.9194C69.2694 141.5 69.6295 141.52 69.9995 141.56C70.3695 141.6 70.7095 141.69 71.0195 141.84C71.3195 141.99 71.5695 142.19 71.7695 142.46C71.9595 142.73 72.0594 143.09 72.0594 143.55C72.0594 144.05 71.9494 144.44 71.7394 144.71C71.5194 144.99 71.2494 145.19 70.9094 145.33C70.5694 145.47 70.1994 145.55 69.7994 145.58C69.3994 145.61 69.0095 145.62 68.6395 145.62H67.0594V141.49L67.0494 141.5Z" fill="url(#paint18_linear_13_873)"/>
<path d="M82.3596 150.6H88.7396L90.1096 153.97H93.0996L86.7596 139.26H84.4996L78.0996 153.97H81.0297L82.3596 150.6ZM85.5596 142.37L87.8196 148.35H83.2496L85.5596 142.37Z" fill="url(#paint19_linear_13_873)"/>
<path d="M98.8994 139.26V153.97H101.519V142.68H101.559L108.829 153.97H112.149V139.26H109.539V150.18H109.489L102.369 139.26H98.8994Z" fill="url(#paint20_linear_13_873)"/>
<path d="M123.179 153.97H125.799V147.67L131.329 139.26H128.209L124.559 145.12L120.939 139.26H117.659L123.179 147.67V153.97Z" fill="url(#paint21_linear_13_873)"/>
<defs>
<linearGradient id="paint0_linear_13_873" x1="2.85965" y1="168.38" x2="2.85965" y2="-47.7201" gradientUnits="userSpaceOnUse">
<stop stop-color="white"/>
<stop offset="0.33" stop-color="white"/>
<stop offset="0.52" stop-color="white"/>
<stop offset="0.73" stop-color="white"/>
<stop offset="1" stop-color="white"/>
</linearGradient>
<linearGradient id="paint1_linear_13_873" x1="14.3399" y1="179.24" x2="14.3399" y2="31.4897" gradientUnits="userSpaceOnUse">
<stop stop-color="white"/>
<stop offset="0.33" stop-color="white"/>
<stop offset="0.52" stop-color="white"/>
<stop offset="0.73" stop-color="white"/>
<stop offset="1" stop-color="white"/>
</linearGradient>
<linearGradient id="paint2_linear_13_873" x1="27.8299" y1="193.75" x2="27.8299" y2="51.03" gradientUnits="userSpaceOnUse">
<stop stop-color="white"/>
<stop offset="0.33" stop-color="white"/>
<stop offset="0.52" stop-color="white"/>
<stop offset="0.73" stop-color="white"/>
<stop offset="1" stop-color="white"/>
</linearGradient>
<linearGradient id="paint3_linear_13_873" x1="41.4592" y1="257.23" x2="41.4592" y2="-36.4201" gradientUnits="userSpaceOnUse">
<stop stop-color="white"/>
<stop offset="0.33" stop-color="white"/>
<stop offset="0.52" stop-color="white"/>
<stop offset="0.73" stop-color="white"/>
<stop offset="1" stop-color="white"/>
</linearGradient>
<linearGradient id="paint4_linear_13_873" x1="50.3893" y1="363.77" x2="50.3893" y2="-158.53" gradientUnits="userSpaceOnUse">
<stop stop-color="white"/>
<stop offset="0.33" stop-color="white"/>
<stop offset="0.52" stop-color="white"/>
<stop offset="0.73" stop-color="white"/>
<stop offset="1" stop-color="white"/>
</linearGradient>
<linearGradient id="paint5_linear_13_873" x1="61.8696" y1="237.97" x2="61.8696" y2="83.5702" gradientUnits="userSpaceOnUse">
<stop stop-color="white"/>
<stop offset="0.33" stop-color="white"/>
<stop offset="0.52" stop-color="white"/>
<stop offset="0.73" stop-color="white"/>
<stop offset="1" stop-color="white"/>
</linearGradient>
<linearGradient id="paint6_linear_13_873" x1="74.9695" y1="281.19" x2="74.9695" y2="76.3198" gradientUnits="userSpaceOnUse">
<stop stop-color="white"/>
<stop offset="0.33" stop-color="white"/>
<stop offset="0.52" stop-color="white"/>
<stop offset="0.73" stop-color="white"/>
<stop offset="1" stop-color="white"/>
</linearGradient>
<linearGradient id="paint7_linear_13_873" x1="93.3596" y1="275.09" x2="93.3596" y2="114.39" gradientUnits="userSpaceOnUse">
<stop stop-color="white"/>
<stop offset="0.33" stop-color="white"/>
<stop offset="0.52" stop-color="white"/>
<stop offset="0.73" stop-color="white"/>
<stop offset="1" stop-color="white"/>
</linearGradient>
<linearGradient id="paint8_linear_13_873" x1="105.859" y1="323.86" x2="105.859" y2="118.99" gradientUnits="userSpaceOnUse">
<stop stop-color="white"/>
<stop offset="0.33" stop-color="white"/>
<stop offset="0.52" stop-color="white"/>
<stop offset="0.73" stop-color="white"/>
<stop offset="1" stop-color="white"/>
</linearGradient>
<linearGradient id="paint9_linear_13_873" x1="117.68" y1="344.02" x2="117.68" y2="135.75" gradientUnits="userSpaceOnUse">
<stop stop-color="white"/>
<stop offset="0.33" stop-color="white"/>
<stop offset="0.52" stop-color="white"/>
<stop offset="0.73" stop-color="white"/>
<stop offset="1" stop-color="white"/>
</linearGradient>
<linearGradient id="paint10_linear_13_873" x1="129.11" y1="359.12" x2="129.11" y2="154.25" gradientUnits="userSpaceOnUse">
<stop stop-color="white"/>
<stop offset="0.33" stop-color="white"/>
<stop offset="0.52" stop-color="white"/>
<stop offset="0.73" stop-color="white"/>
<stop offset="1" stop-color="white"/>
</linearGradient>
<linearGradient id="paint11_linear_13_873" x1="27.3896" y1="37.9699" x2="81.0797" y2="37.9699" gradientUnits="userSpaceOnUse">
<stop stop-color="white"/>
<stop offset="0.33" stop-color="white"/>
<stop offset="0.52" stop-color="white"/>
<stop offset="0.73" stop-color="white"/>
<stop offset="1" stop-color="white"/>
</linearGradient>
<linearGradient id="paint12_linear_13_873" x1="27.3896" y1="86.6899" x2="81.0797" y2="86.6899" gradientUnits="userSpaceOnUse">
<stop stop-color="white"/>
<stop offset="0.33" stop-color="white"/>
<stop offset="0.52" stop-color="white"/>
<stop offset="0.73" stop-color="white"/>
<stop offset="1" stop-color="white"/>
</linearGradient>
<linearGradient id="paint13_linear_13_873" x1="50.6494" y1="39.6798" x2="104.349" y2="39.6798" gradientUnits="userSpaceOnUse">
<stop stop-color="white"/>
<stop offset="0.33" stop-color="white"/>
<stop offset="0.52" stop-color="white"/>
<stop offset="0.73" stop-color="white"/>
<stop offset="1" stop-color="white"/>
</linearGradient>
<linearGradient id="paint14_linear_13_873" x1="50.6494" y1="86.35" x2="104.349" y2="86.35" gradientUnits="userSpaceOnUse">
<stop stop-color="white"/>
<stop offset="0.33" stop-color="white"/>
<stop offset="0.52" stop-color="white"/>
<stop offset="0.73" stop-color="white"/>
<stop offset="1" stop-color="white"/>
</linearGradient>
<linearGradient id="paint15_linear_13_873" x1="7.02992" y1="153.54" x2="7.02992" y2="9.1197" gradientUnits="userSpaceOnUse">
<stop stop-color="white"/>
<stop offset="0.33" stop-color="white"/>
<stop offset="0.52" stop-color="white"/>
<stop offset="0.73" stop-color="white"/>
<stop offset="1" stop-color="white"/>
</linearGradient>
<linearGradient id="paint16_linear_13_873" x1="26.59" y1="171.77" x2="26.59" y2="47.9597" gradientUnits="userSpaceOnUse">
<stop stop-color="white"/>
<stop offset="0.33" stop-color="white"/>
<stop offset="0.52" stop-color="white"/>
<stop offset="0.73" stop-color="white"/>
<stop offset="1" stop-color="white"/>
</linearGradient>
<linearGradient id="paint17_linear_13_873" x1="49.0196" y1="187.76" x2="49.0196" y2="79.9498" gradientUnits="userSpaceOnUse">
<stop stop-color="white"/>
<stop offset="0.33" stop-color="white"/>
<stop offset="0.52" stop-color="white"/>
<stop offset="0.73" stop-color="white"/>
<stop offset="1" stop-color="white"/>
</linearGradient>
<linearGradient id="paint18_linear_13_873" x1="69.6194" y1="235.42" x2="69.6194" y2="72.22" gradientUnits="userSpaceOnUse">
<stop stop-color="white"/>
<stop offset="0.33" stop-color="white"/>
<stop offset="0.52" stop-color="white"/>
<stop offset="0.73" stop-color="white"/>
<stop offset="1" stop-color="white"/>
</linearGradient>
<linearGradient id="paint19_linear_13_873" x1="85.5996" y1="228.87" x2="85.5996" y2="105.64" gradientUnits="userSpaceOnUse">
<stop stop-color="white"/>
<stop offset="0.33" stop-color="white"/>
<stop offset="0.52" stop-color="white"/>
<stop offset="0.73" stop-color="white"/>
<stop offset="1" stop-color="white"/>
</linearGradient>
<linearGradient id="paint20_linear_13_873" x1="105.529" y1="252.08" x2="105.529" y2="125.21" gradientUnits="userSpaceOnUse">
<stop stop-color="white"/>
<stop offset="0.33" stop-color="white"/>
<stop offset="0.52" stop-color="white"/>
<stop offset="0.73" stop-color="white"/>
<stop offset="1" stop-color="white"/>
</linearGradient>
<linearGradient id="paint21_linear_13_873" x1="124.489" y1="280.13" x2="124.489" y2="144.92" gradientUnits="userSpaceOnUse">
<stop stop-color="white"/>
<stop offset="0.33" stop-color="white"/>
<stop offset="0.52" stop-color="white"/>
<stop offset="0.73" stop-color="white"/>
<stop offset="1" stop-color="white"/>
</linearGradient>
</defs>
</svg>
